<?xml version="1.0" encoding="UTF-8"?>
<svg width="758px" height="528px" viewBox="0 0 758 528" version="1.1" xmlns="http://www.w3.org/2000/svg" xmlns:xlink="http://www.w3.org/1999/xlink">
    <!-- Generator: Sketch 64 (93537) - https://sketch.com -->
    <title>background-stars</title>
    <desc>Created with Sketch.</desc>
    <g id="background-stars" stroke="none" stroke-width="1" fill="none" fill-rule="evenodd">
        <g id="Group-2" transform="translate(0.000000, -126.000000)" fill-rule="nonzero">
            <g id="Group" transform="translate(129.000000, 56.000000)">
                <circle id="Oval" fill="#D4FFD4" cx="62" cy="203" r="4"></circle>
                <circle id="Oval" fill="#D4FFD4" cx="176" cy="102" r="1"></circle>
                <circle id="Oval" fill="#D4FFD4" cx="171" cy="171" r="1"></circle>
                <circle id="Oval" fill="#FFBDBD" cx="148" cy="212" r="5"></circle>
                <circle id="Oval" fill="#FFBDBD" cx="160" cy="166" r="4"></circle>
                <circle id="Oval" fill="#FFBDBD" cx="34" cy="143" r="3"></circle>
                <circle id="Oval" fill="#BBF1FF" cx="5" cy="101" r="5"></circle>
                <circle id="Oval" fill="#BBF1FF" cx="107" cy="240" r="4"></circle>
                <circle id="Oval" fill="#BBF1FF" cx="188" cy="119" r="3"></circle>
                <circle id="Oval" fill="#BBF1FF" cx="174" cy="76" r="1"></circle>
                <circle id="Oval" fill="#BBF1FF" cx="9" cy="206" r="1"></circle>
                <circle id="Oval" fill="#FFF4C5" cx="42" cy="167" r="3"></circle>
                <circle id="Oval" fill="#FFF4C5" cx="30" cy="110" r="1"></circle>
                <circle id="Oval" fill="#FFF4C5" cx="203" cy="195" r="1"></circle>
            </g>
            <g id="Group" transform="translate(122.000000, 138.000000) scale(1, -1) translate(-122.000000, -138.000000) translate(20.000000, 16.000000)">
                <circle id="Oval" fill="#D4FFD4" cx="103" cy="5" r="5"></circle>
                <circle id="Oval" fill="#D4FFD4" cx="13" cy="61" r="3"></circle>
                <circle id="Oval" fill="#D4FFD4" cx="176" cy="102" r="1"></circle>
                <circle id="Oval" fill="#FFBDBD" cx="179" cy="17" r="1"></circle>
                <circle id="Oval" fill="#FFBDBD" cx="86" cy="17" r="1"></circle>
                <circle id="Oval" fill="#BBF1FF" cx="5" cy="101" r="5"></circle>
                <circle id="Oval" fill="#BBF1FF" cx="188" cy="119" r="3"></circle>
                <circle id="Oval" fill="#BBF1FF" cx="174" cy="76" r="1"></circle>
                <circle id="Oval" fill="#FFF4C5" cx="53" cy="37" r="5"></circle>
                <circle id="Oval" fill="#FFF4C5" cx="171" cy="49" r="4"></circle>
                <circle id="Oval" fill="#FFF4C5" cx="30" cy="110" r="1"></circle>
            </g>
            <g id="Group" transform="translate(102.000000, 408.000000) scale(-1, 1) translate(-102.000000, -408.000000) translate(0.000000, 286.000000)">
                <circle id="Oval" fill="#D4FFD4" cx="103" cy="5" r="5"></circle>
                <circle id="Oval" fill="#D4FFD4" cx="62" cy="203" r="4"></circle>
                <circle id="Oval" fill="#D4FFD4" cx="13" cy="61" r="3"></circle>
                <circle id="Oval" fill="#D4FFD4" cx="176" cy="102" r="1"></circle>
                <circle id="Oval" fill="#D4FFD4" cx="171" cy="171" r="1"></circle>
                <circle id="Oval" fill="#FFBDBD" cx="148" cy="212" r="5"></circle>
                <circle id="Oval" fill="#FFBDBD" cx="160" cy="166" r="4"></circle>
                <circle id="Oval" fill="#FFBDBD" cx="34" cy="143" r="3"></circle>
                <circle id="Oval" fill="#FFBDBD" cx="179" cy="17" r="1"></circle>
                <circle id="Oval" fill="#FFBDBD" cx="86" cy="17" r="1"></circle>
                <circle id="Oval" fill="#BBF1FF" cx="5" cy="101" r="5"></circle>
                <circle id="Oval" fill="#BBF1FF" cx="107" cy="240" r="4"></circle>
                <circle id="Oval" fill="#BBF1FF" cx="188" cy="119" r="3"></circle>
                <circle id="Oval" fill="#BBF1FF" cx="174" cy="76" r="1"></circle>
                <circle id="Oval" fill="#BBF1FF" cx="9" cy="206" r="1"></circle>
                <circle id="Oval" fill="#FFF4C5" cx="53" cy="37" r="5"></circle>
                <circle id="Oval" fill="#FFF4C5" cx="171" cy="49" r="4"></circle>
                <circle id="Oval" fill="#FFF4C5" cx="42" cy="167" r="3"></circle>
                <circle id="Oval" fill="#FFF4C5" cx="30" cy="110" r="1"></circle>
                <circle id="Oval" fill="#FFF4C5" cx="203" cy="195" r="1"></circle>
            </g>
            <g id="Group" transform="translate(451.000000, 268.000000) scale(1, -1) translate(-451.000000, -268.000000) translate(349.000000, 146.000000)">
                <circle id="Oval" fill="#D4FFD4" cx="103" cy="5" r="5"></circle>
                <circle id="Oval" fill="#D4FFD4" cx="62" cy="203" r="4"></circle>
                <circle id="Oval" fill="#D4FFD4" cx="13" cy="61" r="3"></circle>
                <circle id="Oval" fill="#D4FFD4" cx="176" cy="102" r="1"></circle>
                <circle id="Oval" fill="#D4FFD4" cx="171" cy="171" r="1"></circle>
                <circle id="Oval" fill="#FFBDBD" cx="148" cy="212" r="5"></circle>
                <circle id="Oval" fill="#FFBDBD" cx="34" cy="143" r="3"></circle>
                <circle id="Oval" fill="#FFBDBD" cx="179" cy="17" r="1"></circle>
                <circle id="Oval" fill="#FFBDBD" cx="86" cy="17" r="1"></circle>
                <circle id="Oval" fill="#BBF1FF" cx="5" cy="101" r="5"></circle>
                <circle id="Oval" fill="#BBF1FF" cx="107" cy="240" r="4"></circle>
                <circle id="Oval" fill="#BBF1FF" cx="188" cy="119" r="3"></circle>
                <circle id="Oval" fill="#BBF1FF" cx="174" cy="76" r="1"></circle>
                <circle id="Oval" fill="#BBF1FF" cx="9" cy="206" r="1"></circle>
                <circle id="Oval" fill="#FFF4C5" cx="53" cy="37" r="5"></circle>
                <circle id="Oval" fill="#FFF4C5" cx="171" cy="49" r="4"></circle>
                <circle id="Oval" fill="#FFF4C5" cx="42" cy="167" r="3"></circle>
                <circle id="Oval" fill="#FFF4C5" cx="30" cy="110" r="1"></circle>
                <circle id="Oval" fill="#FFF4C5" cx="203" cy="195" r="1"></circle>
            </g>
            <g id="Group" transform="translate(359.000000, 66.000000)">
                <circle id="Oval" fill="#D4FFD4" cx="62" cy="203" r="4"></circle>
                <circle id="Oval" fill="#D4FFD4" cx="13" cy="61" r="3"></circle>
                <circle id="Oval" fill="#D4FFD4" cx="176" cy="102" r="1"></circle>
                <circle id="Oval" fill="#D4FFD4" cx="171" cy="171" r="1"></circle>
                <circle id="Oval" fill="#FFBDBD" cx="148" cy="212" r="5"></circle>
                <circle id="Oval" fill="#FFBDBD" cx="34" cy="143" r="3"></circle>
                <circle id="Oval" fill="#BBF1FF" cx="5" cy="101" r="5"></circle>
                <circle id="Oval" fill="#BBF1FF" cx="107" cy="240" r="4"></circle>
                <circle id="Oval" fill="#BBF1FF" cx="188" cy="119" r="3"></circle>
                <circle id="Oval" fill="#BBF1FF" cx="174" cy="76" r="1"></circle>
                <circle id="Oval" fill="#BBF1FF" cx="9" cy="206" r="1"></circle>
                <circle id="Oval" fill="#FFF4C5" cx="42" cy="167" r="3"></circle>
                <circle id="Oval" fill="#FFF4C5" cx="30" cy="110" r="1"></circle>
                <circle id="Oval" fill="#FFF4C5" cx="203" cy="195" r="1"></circle>
            </g>
            <g id="Group" transform="translate(632.500000, 122.000000) scale(1, -1) translate(-632.500000, -122.000000) translate(530.500000, 0.000000)">
                <circle id="Oval" fill="#D4FFD4" cx="103" cy="5" r="5"></circle>
                <circle id="Oval" fill="#D4FFD4" cx="13" cy="61" r="3"></circle>
                <circle id="Oval" fill="#D4FFD4" cx="176" cy="102" r="1"></circle>
                <circle id="Oval" fill="#FFBDBD" cx="179" cy="17" r="1"></circle>
                <circle id="Oval" fill="#FFBDBD" cx="86" cy="17" r="1"></circle>
                <circle id="Oval" fill="#BBF1FF" cx="5" cy="101" r="5"></circle>
                <circle id="Oval" fill="#BBF1FF" cx="188" cy="119" r="3"></circle>
                <circle id="Oval" fill="#BBF1FF" cx="174" cy="76" r="1"></circle>
                <circle id="Oval" fill="#FFF4C5" cx="53" cy="37" r="5"></circle>
                <circle id="Oval" fill="#FFF4C5" cx="171" cy="49" r="4"></circle>
                <circle id="Oval" fill="#FFF4C5" cx="30" cy="110" r="1"></circle>
            </g>
            <g id="Group" transform="translate(281.500000, 410.000000)">
                <circle id="Oval" fill="#D4FFD4" cx="103" cy="5" r="5"></circle>
                <circle id="Oval" fill="#D4FFD4" cx="62" cy="203" r="4"></circle>
                <circle id="Oval" fill="#D4FFD4" cx="13" cy="61" r="3"></circle>
                <circle id="Oval" fill="#D4FFD4" cx="176" cy="102" r="1"></circle>
                <circle id="Oval" fill="#D4FFD4" cx="171" cy="171" r="1"></circle>
                <circle id="Oval" fill="#FFBDBD" cx="160" cy="166" r="4"></circle>
                <circle id="Oval" fill="#FFBDBD" cx="34" cy="143" r="3"></circle>
                <circle id="Oval" fill="#FFBDBD" cx="179" cy="17" r="1"></circle>
                <circle id="Oval" fill="#FFBDBD" cx="86" cy="17" r="1"></circle>
                <circle id="Oval" fill="#BBF1FF" cx="5" cy="101" r="5"></circle>
                <circle id="Oval" fill="#BBF1FF" cx="188" cy="119" r="3"></circle>
                <circle id="Oval" fill="#BBF1FF" cx="174" cy="76" r="1"></circle>
                <circle id="Oval" fill="#BBF1FF" cx="9" cy="206" r="1"></circle>
                <circle id="Oval" fill="#FFF4C5" cx="53" cy="37" r="5"></circle>
                <circle id="Oval" fill="#FFF4C5" cx="171" cy="49" r="4"></circle>
                <circle id="Oval" fill="#FFF4C5" cx="42" cy="167" r="3"></circle>
                <circle id="Oval" fill="#FFF4C5" cx="30" cy="110" r="1"></circle>
                <circle id="Oval" fill="#FFF4C5" cx="203" cy="195" r="1"></circle>
            </g>
            <g id="Group" transform="translate(313.500000, 518.500000) scale(-1, 1) translate(-313.500000, -518.500000) translate(211.500000, 410.000000)">
                <circle id="Oval" fill="#D4FFD4" cx="103" cy="5" r="5"></circle>
                <circle id="Oval" fill="#D4FFD4" cx="62" cy="203" r="4"></circle>
                <circle id="Oval" fill="#D4FFD4" cx="13" cy="61" r="3"></circle>
                <circle id="Oval" fill="#D4FFD4" cx="176" cy="102" r="1"></circle>
                <circle id="Oval" fill="#D4FFD4" cx="171" cy="171" r="1"></circle>
                <circle id="Oval" fill="#FFBDBD" cx="148" cy="212" r="5"></circle>
                <circle id="Oval" fill="#FFBDBD" cx="160" cy="166" r="4"></circle>
                <circle id="Oval" fill="#FFBDBD" cx="34" cy="143" r="3"></circle>
                <circle id="Oval" fill="#FFBDBD" cx="179" cy="17" r="1"></circle>
                <circle id="Oval" fill="#FFBDBD" cx="86" cy="17" r="1"></circle>
                <circle id="Oval" fill="#BBF1FF" cx="5" cy="101" r="5"></circle>
                <circle id="Oval" fill="#BBF1FF" cx="188" cy="119" r="3"></circle>
                <circle id="Oval" fill="#BBF1FF" cx="174" cy="76" r="1"></circle>
                <circle id="Oval" fill="#BBF1FF" cx="9" cy="206" r="1"></circle>
                <circle id="Oval" fill="#FFF4C5" cx="53" cy="37" r="5"></circle>
                <circle id="Oval" fill="#FFF4C5" cx="171" cy="49" r="4"></circle>
                <circle id="Oval" fill="#FFF4C5" cx="42" cy="167" r="3"></circle>
                <circle id="Oval" fill="#FFF4C5" cx="30" cy="110" r="1"></circle>
                <circle id="Oval" fill="#FFF4C5" cx="203" cy="195" r="1"></circle>
            </g>
            <g id="Group" transform="translate(584.000000, 662.000000) scale(-1, 1) rotate(-90.000000) translate(-584.000000, -662.000000) translate(482.000000, 540.000000)">
                <circle id="Oval" fill="#D4FFD4" cx="176" cy="102" r="1"></circle>
                <circle id="Oval" fill="#D4FFD4" cx="171" cy="171" r="1"></circle>
                <circle id="Oval" fill="#FFBDBD" cx="148" cy="212" r="5"></circle>
                <circle id="Oval" fill="#FFBDBD" cx="160" cy="166" r="4"></circle>
                <circle id="Oval" fill="#FFBDBD" cx="179" cy="17" r="1"></circle>
                <circle id="Oval" fill="#BBF1FF" cx="107" cy="240" r="4"></circle>
                <circle id="Oval" fill="#BBF1FF" cx="188" cy="119" r="3"></circle>
                <circle id="Oval" fill="#BBF1FF" cx="174" cy="76" r="1"></circle>
                <circle id="Oval" fill="#FFF4C5" cx="171" cy="49" r="4"></circle>
                <circle id="Oval" fill="#FFF4C5" cx="203" cy="195" r="1"></circle>
            </g>
            <g id="Group" transform="translate(112.500000, 512.000000) scale(1, -1) translate(-112.500000, -512.000000) translate(10.500000, 390.000000)">
                <circle id="Oval" fill="#D4FFD4" cx="103" cy="5" r="5"></circle>
                <circle id="Oval" fill="#D4FFD4" cx="62" cy="203" r="4"></circle>
                <circle id="Oval" fill="#D4FFD4" cx="13" cy="61" r="3"></circle>
                <circle id="Oval" fill="#D4FFD4" cx="176" cy="102" r="1"></circle>
                <circle id="Oval" fill="#D4FFD4" cx="171" cy="171" r="1"></circle>
                <circle id="Oval" fill="#FFBDBD" cx="34" cy="143" r="3"></circle>
                <circle id="Oval" fill="#FFBDBD" cx="179" cy="17" r="1"></circle>
                <circle id="Oval" fill="#FFBDBD" cx="86" cy="17" r="1"></circle>
                <circle id="Oval" fill="#BBF1FF" cx="5" cy="101" r="5"></circle>
                <circle id="Oval" fill="#BBF1FF" cx="107" cy="240" r="4"></circle>
                <circle id="Oval" fill="#BBF1FF" cx="188" cy="119" r="3"></circle>
                <circle id="Oval" fill="#BBF1FF" cx="174" cy="76" r="1"></circle>
                <circle id="Oval" fill="#BBF1FF" cx="9" cy="206" r="1"></circle>
                <circle id="Oval" fill="#FFF4C5" cx="53" cy="37" r="5"></circle>
                <circle id="Oval" fill="#FFF4C5" cx="171" cy="49" r="4"></circle>
                <circle id="Oval" fill="#FFF4C5" cx="42" cy="167" r="3"></circle>
                <circle id="Oval" fill="#FFF4C5" cx="30" cy="110" r="1"></circle>
                <circle id="Oval" fill="#FFF4C5" cx="203" cy="195" r="1"></circle>
            </g>
            <g id="Group" transform="translate(652.500000, 422.000000) scale(-1, -1) translate(-652.500000, -422.000000) translate(550.500000, 300.000000)">
                <circle id="Oval" fill="#D4FFD4" cx="103" cy="5" r="5"></circle>
                <circle id="Oval" fill="#D4FFD4" cx="62" cy="203" r="4"></circle>
                <circle id="Oval" fill="#D4FFD4" cx="13" cy="61" r="3"></circle>
                <circle id="Oval" fill="#D4FFD4" cx="176" cy="102" r="1"></circle>
                <circle id="Oval" fill="#D4FFD4" cx="171" cy="171" r="1"></circle>
                <circle id="Oval" fill="#FFBDBD" cx="148" cy="212" r="5"></circle>
                <circle id="Oval" fill="#FFBDBD" cx="160" cy="166" r="4"></circle>
                <circle id="Oval" fill="#FFBDBD" cx="34" cy="143" r="3"></circle>
                <circle id="Oval" fill="#FFBDBD" cx="179" cy="17" r="1"></circle>
                <circle id="Oval" fill="#FFBDBD" cx="86" cy="17" r="1"></circle>
                <circle id="Oval" fill="#BBF1FF" cx="5" cy="101" r="5"></circle>
                <circle id="Oval" fill="#BBF1FF" cx="107" cy="240" r="4"></circle>
                <circle id="Oval" fill="#BBF1FF" cx="188" cy="119" r="3"></circle>
                <circle id="Oval" fill="#BBF1FF" cx="174" cy="76" r="1"></circle>
                <circle id="Oval" fill="#BBF1FF" cx="9" cy="206" r="1"></circle>
                <circle id="Oval" fill="#FFF4C5" cx="53" cy="37" r="5"></circle>
                <circle id="Oval" fill="#FFF4C5" cx="171" cy="49" r="4"></circle>
                <circle id="Oval" fill="#FFF4C5" cx="42" cy="167" r="3"></circle>
                <circle id="Oval" fill="#FFF4C5" cx="30" cy="110" r="1"></circle>
                <circle id="Oval" fill="#FFF4C5" cx="203" cy="195" r="1"></circle>
            </g>
            <g id="Group" transform="translate(632.500000, 572.000000) scale(-1, -1) translate(-632.500000, -572.000000) translate(530.500000, 450.000000)">
                <circle id="Oval" fill="#D4FFD4" cx="62" cy="203" r="4"></circle>
                <circle id="Oval" fill="#D4FFD4" cx="13" cy="61" r="3"></circle>
                <circle id="Oval" fill="#D4FFD4" cx="176" cy="102" r="1"></circle>
                <circle id="Oval" fill="#D4FFD4" cx="171" cy="171" r="1"></circle>
                <circle id="Oval" fill="#FFBDBD" cx="148" cy="212" r="5"></circle>
                <circle id="Oval" fill="#FFBDBD" cx="34" cy="143" r="3"></circle>
                <circle id="Oval" fill="#BBF1FF" cx="5" cy="101" r="5"></circle>
                <circle id="Oval" fill="#BBF1FF" cx="107" cy="240" r="4"></circle>
                <circle id="Oval" fill="#BBF1FF" cx="188" cy="119" r="3"></circle>
                <circle id="Oval" fill="#BBF1FF" cx="174" cy="76" r="1"></circle>
                <circle id="Oval" fill="#BBF1FF" cx="9" cy="206" r="1"></circle>
                <circle id="Oval" fill="#FFF4C5" cx="42" cy="167" r="3"></circle>
                <circle id="Oval" fill="#FFF4C5" cx="30" cy="110" r="1"></circle>
                <circle id="Oval" fill="#FFF4C5" cx="203" cy="195" r="1"></circle>
            </g>
        </g>
    </g>
</svg>