<?xml version="1.0" encoding="UTF-8"?>
<svg width="1440px" height="698px" viewBox="0 0 1440 698" version="1.1" xmlns="http://www.w3.org/2000/svg" xmlns:xlink="http://www.w3.org/1999/xlink">
    <!-- Generator: Sketch 64 (93537) - https://sketch.com -->
    <title>Group 4</title>
    <desc>Created with Sketch.</desc>
    <g id="Version-2-UI" stroke="none" stroke-width="1" fill="none" fill-rule="evenodd">
        <g id="Home" transform="translate(0.000000, -3166.000000)">
            <g id="Newsletter" transform="translate(0.000000, 3166.000000)">
                <g id="Group-4" transform="translate(720.000000, 349.000000) scale(1, -1) translate(-720.000000, -349.000000) ">
                    <path d="M0,687 L0,40.809966 C57.2722558,9.59135506 165.273296,75.405612 231.058422,100.419567 C341.28538,142.331962 467.495302,139.573071 619,88.0451264 C860.925007,5.76452045 983.394485,152.67159 1123.80543,154.95915 C1264.21637,157.246711 1393.12543,10.5 1440,10.5 L1440,686.5 L0,687 Z" id="Path" fill="#FFF47D" transform="translate(720.000000, 348.750000) scale(1, -1) translate(-720.000000, -348.750000) "></path>
                    <path d="M0,698 L0,32.2284498 C153.235385,-53.8299618 328.66042,190.864867 570.585428,106.090909 C812.510435,21.3169514 983.394485,147.47982 1123.80543,149.8367 C1264.21637,152.193581 1393.12543,1 1440,1 L1440,697.484848 L0,698 Z" id="Path" fill="#19CBCC" transform="translate(720.000000, 349.500000) scale(-1, -1) translate(-720.000000, -349.500000) "></path>
                    <path d="M0,677 L0,30.809966 C153.235385,-52.7173159 328.66042,184.780606 570.585428,102.5 C812.510435,20.219394 983.394485,142.67159 1123.80543,144.95915 C1264.21637,147.246711 1393.12543,0.5 1440,0.5 L1440,676.5 L0,677 Z" id="Path" fill="#292F36" transform="translate(720.000000, 338.750000) scale(-1, -1) translate(-720.000000, -338.750000) "></path>
                </g>
            </g>
        </g>
    </g>
</svg>