<?xml version="1.0" encoding="UTF-8"?>
<svg width="116px" height="108px" viewBox="0 0 116 108" version="1.1" xmlns="http://www.w3.org/2000/svg" xmlns:xlink="http://www.w3.org/1999/xlink">
    <!-- Generator: Sketch 64 (93537) - https://sketch.com -->
    <title>Icon ebook</title>
    <desc>Created with Sketch.</desc>
    <g id="Icon-ebook" stroke="none" stroke-width="1" fill="none" fill-rule="evenodd">
        <g id="news">
            <path d="M58,107.999642 C77.4183295,107.999642 92.1630119,94.6408989 102.689976,80.9997992 C109.528314,72.1385134 116,65.7442624 116,54.0001254 C116,41.65047 105.888658,30.1827203 98.3962757,21.0852136 C87.7953484,8.21320577 76.7679519,-0.000358399363 58,-0.000358399363 C42.7366497,-0.000358399363 25.1425521,-0.102215499 14.7865016,8.87151389 C3.40876884,18.7305519 0,38.3875943 0,54.0001254 C0,68.6787082 14.0708769,80.023314 24.2790698,89.7567404 C34.8113023,99.7991359 41.733511,107.999642 58,107.999642 Z" id="Oval" fill="#292F36"></path>
            <g id="Group" transform="translate(26.000000, 20.000000)" fill-rule="nonzero">
                <circle id="Oval" fill="#D4FFD4" cx="56.5" cy="55.5" r="1.5"></circle>
                <circle id="Oval" fill="#D4FFD4" cx="51" cy="10" r="1"></circle>
                <circle id="Oval" fill="#D4FFD4" cx="67" cy="62" r="1"></circle>
                <circle id="Oval" fill="#D4FFD4" cx="4" cy="25" r="1"></circle>
                <circle id="Oval" fill="#FFBDBD" cx="36.5" cy="1.5" r="1.5"></circle>
                <circle id="Oval" fill="#FFBDBD" cx="1" cy="36" r="1"></circle>
                <circle id="Oval" fill="#FFBDBD" cx="70" cy="28" r="1"></circle>
                <circle id="Oval" fill="#FFBDBD" cx="15" cy="63" r="1"></circle>
                <circle id="Oval" fill="#FFBDBD" cx="69.5" cy="18.5" r="1"></circle>
                <circle id="Oval" fill="#BBF1FF" cx="73.5" cy="37.5" r="1.5"></circle>
                <circle id="Oval" fill="#BBF1FF" cx="17" cy="8" r="1"></circle>
                <circle id="Oval" fill="#BBF1FF" cx="7" cy="54" r="1"></circle>
                <circle id="Oval" fill="#BBF1FF" cx="50" cy="65" r="1"></circle>
                <circle id="Oval" fill="#FFF4C5" cx="40.5" cy="72.5" r="1.5"></circle>
                <circle id="Oval" fill="#FFF4C5" cx="25" cy="70" r="1"></circle>
                <circle id="Oval" fill="#FFF4C5" cx="28" cy="4" r="1"></circle>
                <circle id="Oval" fill="#FFF4C5" cx="5.5" cy="14.5" r="1"></circle>
            </g>
            <g id="Group" transform="translate(46.500000, 38.000000) scale(1, -1) translate(-46.500000, -38.000000) translate(11.000000, 6.000000)" fill-rule="nonzero">
                <circle id="Oval" fill="#D4FFD4" cx="56.5" cy="55.5" r="1.5"></circle>
                <circle id="Oval" fill="#D4FFD4" cx="51" cy="10" r="1"></circle>
                <circle id="Oval" fill="#D4FFD4" cx="67" cy="62" r="1"></circle>
                <circle id="Oval" fill="#D4FFD4" cx="4" cy="25" r="1"></circle>
                <circle id="Oval" fill="#D4FFD4" cx="58.5" cy="12.5" r="1"></circle>
                <circle id="Oval" fill="#FFBDBD" cx="36.5" cy="1.5" r="1.5"></circle>
                <circle id="Oval" fill="#FFBDBD" cx="1" cy="36" r="1"></circle>
                <circle id="Oval" fill="#FFBDBD" cx="70" cy="28" r="1"></circle>
                <circle id="Oval" fill="#FFBDBD" cx="15" cy="63" r="1"></circle>
                <circle id="Oval" fill="#FFBDBD" cx="69.5" cy="18.5" r="1"></circle>
            </g>
            <g id="Group" transform="translate(56.500000, 38.000000) scale(-1, 1) translate(-56.500000, -38.000000) translate(21.000000, 6.000000)" fill-rule="nonzero">
                <circle id="Oval" fill="#D4FFD4" cx="56.5" cy="55.5" r="1.5"></circle>
                <circle id="Oval" fill="#D4FFD4" cx="51" cy="10" r="1"></circle>
                <circle id="Oval" fill="#D4FFD4" cx="67" cy="62" r="1"></circle>
                <circle id="Oval" fill="#D4FFD4" cx="4" cy="25" r="1"></circle>
                <circle id="Oval" fill="#D4FFD4" cx="58.5" cy="12.5" r="1"></circle>
                <circle id="Oval" fill="#FFBDBD" cx="36.5" cy="1.5" r="1.5"></circle>
                <circle id="Oval" fill="#FFBDBD" cx="1" cy="36" r="1"></circle>
                <circle id="Oval" fill="#FFBDBD" cx="70" cy="28" r="1"></circle>
                <circle id="Oval" fill="#FFBDBD" cx="15" cy="63" r="1"></circle>
                <circle id="Oval" fill="#FFBDBD" cx="69.5" cy="18.5" r="1"></circle>
            </g>
            <rect id="Rectangle" fill="#F7FFF7" fill-rule="nonzero" x="41" y="33" width="35" height="49"></rect>
            <rect id="Rectangle" fill="#FFFFFF" fill-rule="nonzero" x="41" y="33" width="32" height="47"></rect>
            <path d="M75.4671403,82 L40.5328597,82 C40.2385694,82 40,81.7600283 40,81.4640081 L40,32.5359919 C40,32.2399717 40.2385694,32 40.5328597,32 L75.4671403,32 C75.7614306,32 76,32.2399717 76,32.5359919 L76,81.4640081 C76,81.7600283 75.7614306,82 75.4671403,82 Z M41.0657194,80.9280163 L74.9342806,80.9280163 L74.9342806,33.0719837 L41.0657194,33.0719837 L41.0657194,80.9280163 Z" id="Shape" fill="#19CBCC" fill-rule="nonzero"></path>
            <polygon id="Path" fill-opacity="0.868853802" fill="#F7FFF7" fill-rule="nonzero" points="72 26 72 33 40 33"></polygon>
            <path d="M72.4630051,32.9970017 L40.59322,32.9970017 C40.4023723,33.0174128 40.215331,32.9325665 40.1025528,32.7744235 C39.9897746,32.6162804 39.9683932,32.4088663 40.0464628,32.2303121 C40.1245324,32.0517579 40.2901923,31.9291901 40.4810401,31.9087789 L72.3534961,25.0121674 C72.513326,24.9771565 72.6800956,25.0186204 72.8061133,25.1247016 C72.932131,25.2307827 73.0035205,25.3898 73,25.5562787 L73,32.4528903 C73,32.5976702 72.9432209,32.7364809 72.8424624,32.8386002 C72.7417039,32.9407194 72.6051434,32.9977256 72.4630051,32.9970017 Z M46,32 L72,32 L72,26 L46,32 Z" id="Shape" fill="#19CBCC" fill-rule="nonzero"></path>
            <polygon id="Path" fill-opacity="0.868853802" fill="#F7FFF7" fill-rule="nonzero" points="73 30 73 33 41 33"></polygon>
            <path d="M73.4752229,32.9993907 L40.5544487,32.9993907 C40.2631696,33.0126171 40.0152348,32.8088979 40.0006709,32.5443712 C39.9861069,32.2798445 40.2104289,32.0546813 40.501708,32.0414549 L73.4198451,29.0024035 C73.568611,28.9888235 73.7167327,29.0332247 73.8273652,29.1245624 C73.9379976,29.2159001 74.000743,29.3455899 74,29.4813714 L74,32.5204228 C74,32.7840171 73.7654717,32.9980728 73.4752229,32.9993907 Z M51,32 L73,32 L73,30 L51,32 Z" id="Shape" fill="#19CBCC" fill-rule="nonzero"></path>
            <path d="M54.8965517,41 L45.1034483,41 C44.4940306,41 44,40.5522847 44,40 C44,39.4477153 44.4940306,39 45.1034483,39 L54.8965517,39 C55.5059694,39 56,39.4477153 56,40 C56,40.5522847 55.5059694,41 54.8965517,41 Z" id="Path" fill="#292F36" fill-rule="nonzero"></path>
            <path d="M54.8965517,48 L45.1034483,48 C44.4940306,48 44,47.5522847 44,47 C44,46.4477153 44.4940306,46 45.1034483,46 L54.8965517,46 C55.5059694,46 56,46.4477153 56,47 C56,47.5522847 55.5059694,48 54.8965517,48 Z" id="Path" fill="#292F36" fill-rule="nonzero"></path>
            <path d="M70.8965517,62 L61.1034483,62 C60.4940306,62 60,61.5522847 60,61 C60,60.4477153 60.4940306,60 61.1034483,60 L70.8965517,60 C71.5059694,60 72,60.4477153 72,61 C72,61.5522847 71.5059694,62 70.8965517,62 Z" id="Path" fill="#292F36" fill-rule="nonzero"></path>
            <path d="M70.8965517,55 L61.1034483,55 C60.4940306,55 60,54.5522847 60,54 C60,53.4477153 60.4940306,53 61.1034483,53 L70.8965517,53 C71.5059694,53 72,53.4477153 72,54 C72,54.5522847 71.5059694,55 70.8965517,55 Z" id="Path" fill="#292F36" fill-rule="nonzero"></path>
            <path d="M54.8965517,55 L45.1034483,55 C44.4940306,55 44,54.5522847 44,54 C44,53.4477153 44.4940306,53 45.1034483,53 L54.8965517,53 C55.5059694,53 56,53.4477153 56,54 C56,54.5522847 55.5059694,55 54.8965517,55 Z" id="Path" fill="#292F36" fill-rule="nonzero"></path>
            <path d="M70.8965517,69 L61.1034483,69 C60.4940306,69 60,68.5522847 60,68 C60,67.4477153 60.4940306,67 61.1034483,67 L70.8965517,67 C71.5059694,67 72,67.4477153 72,68 C72,68.5522847 71.5059694,69 70.8965517,69 Z" id="Path" fill="#292F36" fill-rule="nonzero"></path>
            <path d="M70.8965517,76 L61.1034483,76 C60.4940306,76 60,75.5522847 60,75 C60,74.4477153 60.4940306,74 61.1034483,74 L70.8965517,74 C71.5059694,74 72,74.4477153 72,75 C72,75.5522847 71.5059694,76 70.8965517,76 Z" id="Path" fill="#292F36" fill-rule="nonzero"></path>
            <rect id="Rectangle" fill="#FFF47D" fill-rule="nonzero" x="62" y="40" width="8" height="8" rx="4"></rect>
            <rect id="Rectangle" fill="#FFF47D" fill-rule="nonzero" x="45" y="60" width="9" height="15" rx="2"></rect>
        </g>
    </g>
</svg>