<?xml version="1.0" encoding="UTF-8"?>
<svg width="207px" height="436px" viewBox="0 0 207 436" version="1.1" xmlns="http://www.w3.org/2000/svg" xmlns:xlink="http://www.w3.org/1999/xlink">
    <!-- Generator: Sketch 64 (93537) - https://sketch.com -->
    <title>Header-shapes</title>
    <desc>Created with Sketch.</desc>
    <g id="Symbols" stroke="none" stroke-width="1" fill="none" fill-rule="evenodd">
        <g id="Header-shapes" transform="translate(10.000000, 28.000000)">
            <g id="Group-7">
                <path d="M328.632537,240.250647 C349.328358,203.902965 307.388384,5 250.588294,5 C204.394671,5 102.363521,51.9597103 102.363521,116 C102.363521,150.229175 40.0056739,165.793844 4.76423383,213 C-21.9842794,248.829821 71.678798,319.994458 92.759488,326 C145.363559,340.986034 296.773304,296.204416 328.632537,240.250647 Z" id="Oval" fill="#FFF47D"></path>
                <path d="M179.5,334 C239.596382,334 285.228632,292.686851 317.807772,250.500487 C338.971247,223.096141 359,203.321327 359,167.001496 C359,128.809043 327.70714,93.3439655 304.519508,65.2090839 C271.711466,25.4012077 237.583575,0 179.5,0 C132.262562,0 77.8118637,-0.315002512 45.761673,27.4370865 C10.5495518,57.9270743 0,118.718298 0,167.001496 C0,212.396373 43.5469381,247.480617 75.1395349,277.582139 C107.734979,308.639177 129.158021,334 179.5,334 Z" id="Oval-Copy" fill="#19CBCC"></path>
                <path d="M202.5,376 C262.596382,376 308.228632,334.686851 340.807772,292.500487 C361.971247,265.096141 382,245.321327 382,209.001496 C382,170.809043 350.70714,135.343966 327.519508,107.209084 C294.711466,67.4012077 260.583575,42 202.5,42 C155.262562,42 100.811864,41.6849975 68.761673,69.4370865 C33.5495518,99.9270743 23,160.718298 23,209.001496 C23,254.396373 66.5469381,289.480617 98.1395349,319.582139 C130.734979,350.639177 152.158021,376 202.5,376 Z" id="Oval" fill="#292F36"></path>
            </g>
        </g>
    </g>
</svg>