<?xml version="1.0" encoding="UTF-8"?>
<svg width="203px" height="548px" viewBox="0 0 203 548" version="1.1" xmlns="http://www.w3.org/2000/svg" xmlns:xlink="http://www.w3.org/1999/xlink">
    <!-- Generator: Sketch 64 (93537) - https://sketch.com -->
    <title>Group 3</title>
    <desc>Created with Sketch.</desc>
    <g id="Version-2-UI" stroke="none" stroke-width="1" fill="none" fill-rule="evenodd">
        <g id="Home" transform="translate(-1237.000000, -166.000000)">
            <g id="Group-3" transform="translate(1237.784522, 166.535068)">
                <path d="M328.848014,347.715578 C349.543836,311.367897 307.603862,112.461789 250.803771,112.464932 C204.610149,112.464932 86.913849,-0.535068235 59.9462946,63.4649318 C32.9787401,127.464932 -15.6942452,252.464932 4.97971135,320.464932 C18.6338706,365.375679 71.8942756,427.45939 92.9749655,433.464932 C145.579036,448.450966 296.988782,403.669348 328.848014,347.715578 Z" id="Oval" fill="#FFF47D"></path>
                <path d="M202.215478,508.464932 C262.311859,508.464932 285.444109,400.151783 318.023249,357.965419 C339.186724,330.561072 359.215478,310.786259 359.215478,274.466428 C359.215478,236.273975 327.922618,200.808897 304.734986,172.674016 C271.926944,132.866139 272.542543,13.5487362 214.458968,13.5511057 C167.221531,13.5511057 127.733151,-16.9388821 92.52103,13.5511057 C57.3089088,44.0410934 32.9787401,213.681734 32.9787401,261.964932 C32.9787401,307.359808 60.9284332,391.363409 92.52103,421.464932 C125.116474,452.52197 151.873499,508.464932 202.215478,508.464932 Z" id="Oval-Copy" fill="#19CBCC"></path>
                <path d="M202.715478,546.949957 C262.811859,546.949957 308.444109,442.151783 341.023249,399.965419 C362.186724,372.561072 382.215478,352.786259 382.215478,316.466428 C382.215478,278.273975 350.922618,242.808897 327.734986,214.674016 C294.926944,174.866139 319.576507,8.54540544 261.492931,8.54777495 C214.255494,8.54777495 132.697406,-11.2719317 110.205216,40.4649318 C0.215477517,293.464932 152.373499,546.949957 202.715478,546.949957 Z" id="Oval" fill="#292F36"></path>
            </g>
        </g>
    </g>
</svg>