<?xml version="1.0" encoding="utf-8"?>
<!-- Generator: Adobe Illustrator 20.1.0, SVG Export Plug-In . SVG Version: 6.00 Build 0)  -->
<svg version="1.1" id="Capa_1" xmlns="http://www.w3.org/2000/svg" xmlns:xlink="http://www.w3.org/1999/xlink" x="0px" y="0px"
	 viewBox="0 0 40 40" style="enable-background:new 0 0 40 40;" xml:space="preserve">
<style type="text/css">
	.st0{fill:#292F36;}
	.st1{fill:none;stroke:#F7FFF7;stroke-width:1.1;stroke-miterlimit:10;}
	.st2{filter:url(#Adobe_OpacityMaskFilter);}
	.st3{fill:#FFFFFF;}
	.st4{mask:url(#SVGID_1_);fill:none;stroke:#F7FFF7;stroke-miterlimit:10;}
	.st5{filter:url(#Adobe_OpacityMaskFilter_1_);}
	.st6{mask:url(#SVGID_2_);fill:none;stroke:#F7FFF7;stroke-miterlimit:10;}
	.st7{fill:none;stroke:#F7FFF7;stroke-miterlimit:10;}
</style>
<g id="Logo">
	<g>
		<circle id="Oval" class="st0" cx="20" cy="20" r="20"/>
		<g>
			<line class="st1" x1="17.7" y1="29" x2="17.7" y2="20.5"/>
			<defs>
				<filter id="Adobe_OpacityMaskFilter" filterUnits="userSpaceOnUse" x="18.6" y="24.1" width="6" height="6.2">
					
						<feColorMatrix  type="matrix" values="-1 0 0 0 1  0 -1 0 0 1  0 0 -1 0 1  0 0 0 1 0" color-interpolation-filters="sRGB" result="source"/>
					<feFlood  style="flood-color:white;flood-opacity:1" result="back"/>
					<feBlend  in="source" in2="back" mode="normal"/>
				</filter>
			</defs>
			<mask maskUnits="userSpaceOnUse" x="18.6" y="24.1" width="6" height="6.2" id="SVGID_1_">
				<g class="st2">
					<polygon class="st3" points="21.6,29 24.2,29 25.1,29.7 24.1,30.6 23,30.6 					"/>
				</g>
			</mask>
			<line class="st4" x1="18.9" y1="24.5" x2="24.2" y2="30"/>
			<defs>
				<filter id="Adobe_OpacityMaskFilter_1_" filterUnits="userSpaceOnUse" x="17.4" y="19.6" width="6.4" height="6.2">
					
						<feColorMatrix  type="matrix" values="-1 0 0 0 1  0 -1 0 0 1  0 0 -1 0 1  0 0 0 1 0" color-interpolation-filters="sRGB" result="source"/>
					<feFlood  style="flood-color:white;flood-opacity:1" result="back"/>
					<feBlend  in="source" in2="back" mode="normal"/>
				</filter>
			</defs>
			<mask maskUnits="userSpaceOnUse" x="17.4" y="19.6" width="6.4" height="6.2" id="SVGID_2_">
				<g class="st5">
					<polygon class="st3" points="24.9,20.5 21.4,20.5 23,19.2 					"/>
				</g>
			</mask>
			<line class="st6" x1="17.7" y1="25.5" x2="23.5" y2="20"/>
		</g>
		<g>
			<polyline class="st1" points="22.9,9 17.7,9 17.7,12.7 17.7,16.4 22.9,16.4 			"/>
			<line class="st7" x1="22.6" y1="12.7" x2="17.7" y2="12.7"/>
		</g>
	</g>
</g>
</svg>
