<?xml version="1.0" encoding="UTF-8"?>
<svg width="116px" height="108px" viewBox="0 0 116 108" version="1.1" xmlns="http://www.w3.org/2000/svg" xmlns:xlink="http://www.w3.org/1999/xlink">
    <!-- Generator: Sketch 64 (93537) - https://sketch.com -->
    <title>Icon Target</title>
    <desc>Created with Sketch.</desc>
    <g id="Icon-Target" stroke="none" stroke-width="1" fill="none" fill-rule="evenodd">
        <g>
            <path d="M58,108 C77.4183295,108 92.1630119,94.6412573 102.689976,81.0001576 C109.528314,72.1388718 116,65.7446208 116,54.0004838 C116,41.6508284 105.888658,30.1830787 98.3962757,21.085572 C87.7953484,8.21356417 76.7679519,0 58,0 C42.7366497,0 25.1425521,-0.1018571 14.7865016,8.87187229 C3.40876884,18.7309103 0,38.3879527 0,54.0004838 C0,68.6790666 14.0708769,80.0236724 24.2790698,89.7570988 C34.8113023,99.7994943 41.733511,108 58,108 Z" id="Oval" fill="#292F36"></path>
            <g id="target" transform="translate(11.000000, 6.000358)" fill-rule="nonzero">
                <g id="Group" transform="translate(15.000000, 13.999642)">
                    <circle id="Oval" fill="#D4FFD4" cx="56.5" cy="55.5" r="1.5"></circle>
                    <circle id="Oval" fill="#D4FFD4" cx="51" cy="10" r="1"></circle>
                    <circle id="Oval" fill="#D4FFD4" cx="67" cy="62" r="1"></circle>
                    <circle id="Oval" fill="#D4FFD4" cx="4" cy="25" r="1"></circle>
                    <circle id="Oval" fill="#FFBDBD" cx="36.5" cy="1.5" r="1.5"></circle>
                    <circle id="Oval" fill="#FFBDBD" cx="1" cy="36" r="1"></circle>
                    <circle id="Oval" fill="#FFBDBD" cx="70" cy="28" r="1"></circle>
                    <circle id="Oval" fill="#FFBDBD" cx="15" cy="63" r="1"></circle>
                    <circle id="Oval" fill="#FFBDBD" cx="69.5" cy="18.5" r="1"></circle>
                    <circle id="Oval" fill="#BBF1FF" cx="73.5" cy="37.5" r="1.5"></circle>
                    <circle id="Oval" fill="#BBF1FF" cx="17" cy="8" r="1"></circle>
                    <circle id="Oval" fill="#BBF1FF" cx="7" cy="54" r="1"></circle>
                    <circle id="Oval" fill="#BBF1FF" cx="50" cy="65" r="1"></circle>
                    <circle id="Oval" fill="#FFF4C5" cx="40.5" cy="72.5" r="1.5"></circle>
                    <circle id="Oval" fill="#FFF4C5" cx="25" cy="70" r="1"></circle>
                    <circle id="Oval" fill="#FFF4C5" cx="58" cy="19" r="1"></circle>
                    <circle id="Oval" fill="#FFF4C5" cx="28" cy="4" r="1"></circle>
                    <circle id="Oval" fill="#FFF4C5" cx="5.5" cy="14.5" r="1"></circle>
                </g>
                <g id="Group" transform="translate(35.500000, 31.999642) scale(1, -1) translate(-35.500000, -31.999642) translate(0.000000, -0.000358)">
                    <circle id="Oval" fill="#D4FFD4" cx="56.5" cy="55.5" r="1.5"></circle>
                    <circle id="Oval" fill="#D4FFD4" cx="51" cy="10" r="1"></circle>
                    <circle id="Oval" fill="#D4FFD4" cx="67" cy="62" r="1"></circle>
                    <circle id="Oval" fill="#D4FFD4" cx="4" cy="25" r="1"></circle>
                    <circle id="Oval" fill="#D4FFD4" cx="58.5" cy="12.5" r="1"></circle>
                    <circle id="Oval" fill="#FFBDBD" cx="36.5" cy="1.5" r="1.5"></circle>
                    <circle id="Oval" fill="#FFBDBD" cx="1" cy="36" r="1"></circle>
                    <circle id="Oval" fill="#FFBDBD" cx="70" cy="28" r="1"></circle>
                    <circle id="Oval" fill="#FFBDBD" cx="15" cy="63" r="1"></circle>
                    <circle id="Oval" fill="#FFBDBD" cx="69.5" cy="18.5" r="1"></circle>
                </g>
                <g id="Group" transform="translate(45.500000, 31.999642) scale(-1, 1) translate(-45.500000, -31.999642) translate(10.000000, -0.000358)">
                    <circle id="Oval" fill="#D4FFD4" cx="56.5" cy="55.5" r="1.5"></circle>
                    <circle id="Oval" fill="#D4FFD4" cx="51" cy="10" r="1"></circle>
                    <circle id="Oval" fill="#D4FFD4" cx="67" cy="62" r="1"></circle>
                    <circle id="Oval" fill="#D4FFD4" cx="4" cy="25" r="1"></circle>
                    <circle id="Oval" fill="#D4FFD4" cx="58.5" cy="12.5" r="1"></circle>
                    <circle id="Oval" fill="#FFBDBD" cx="36.5" cy="1.5" r="1.5"></circle>
                    <circle id="Oval" fill="#FFBDBD" cx="1" cy="36" r="1"></circle>
                    <circle id="Oval" fill="#FFBDBD" cx="70" cy="28" r="1"></circle>
                    <circle id="Oval" fill="#FFBDBD" cx="15" cy="63" r="1"></circle>
                    <circle id="Oval" fill="#FFBDBD" cx="69.5" cy="18.5" r="1"></circle>
                </g>
                <circle id="Oval" fill="#F97171" cx="46.5" cy="48.4996416" r="25.5"></circle>
                <ellipse id="Oval" fill="#FF8888" cx="45" cy="46.4996416" rx="24" ry="23.5"></ellipse>
                <path d="M46.5,73.9996416 C31.8644541,73.9996416 20,62.3590451 20,47.9996416 C20,33.6402381 31.8644541,21.9996416 46.5,21.9996416 C61.1355459,21.9996416 73,33.6402381 73,47.9996416 C72.9830197,62.3521387 61.1285066,73.9829817 46.5,73.9996416 Z M46.5,23.2089439 C32.5451772,23.2089439 21.2325581,34.3081173 21.2325581,47.9996416 C21.2325581,61.6911659 32.5451772,72.7903393 46.5,72.7903393 C60.4548228,72.7903393 71.7674419,61.6911659 71.7674419,47.9996416 C71.7521577,34.3143336 60.448487,23.2239397 46.5,23.2089439 Z" id="Shape" fill="#292F36"></path>
                <path d="M46.5,67.9996416 C35.7304474,67.9996416 27,59.2691942 27,48.4996416 C27,37.730089 35.7304474,28.9996416 46.5,28.9996416 C57.2695526,28.9996416 66,37.730089 66,48.4996416 C65.9882454,59.2643216 57.2646799,67.987887 46.5,67.9996416 L46.5,67.9996416 Z" id="Path" fill="#FFFFFF"></path>
                <path d="M46.5,67.9996416 C35.1781626,67.9996416 26,59.0453366 26,47.9996416 C26,36.9539466 35.1781626,27.9996416 46.5,27.9996416 C57.8218374,27.9996416 67,36.9539466 67,47.9996416 C66.9880163,59.0404902 57.8168698,67.9879502 46.5,67.9996416 L46.5,67.9996416 Z M46.5,29.2117628 C35.8643346,29.2117628 27.2424242,37.6233827 27.2424242,47.9996416 C27.2424242,58.3759005 35.8643346,66.7875204 46.5,66.7875204 C57.1356654,66.7875204 65.7575758,58.3759005 65.7575758,47.9996416 C65.7455936,37.6282286 57.1306983,29.2234527 46.5,29.2117628 Z" id="Shape" fill="#292F36"></path>
                <path d="M46.5,61.9996416 C39.0441559,61.9996416 33,55.9554857 33,48.4996416 C33,41.0437975 39.0441559,34.9996416 46.5,34.9996416 C53.9558441,34.9996416 60,41.0437975 60,48.4996416 C60,52.0800642 58.5776827,55.513842 56.0459415,58.0455831 C53.5142004,60.5773243 50.0804226,61.9996416 46.5,61.9996416 Z" id="Path" fill="#FF8888"></path>
                <path d="M46,61.9996416 C38.2680135,61.9996416 32,55.7316281 32,47.9996416 C32,40.2676551 38.2680135,33.9996416 46,33.9996416 C53.7319865,33.9996416 60,40.2676551 60,47.9996416 C59.9916131,55.7281515 53.7285099,61.9912547 46,61.9996416 Z M46,35.2170329 C38.9403602,35.2170329 33.2173913,40.9400018 33.2173913,47.9996416 C33.2173913,55.0592814 38.9403602,60.7822503 46,60.7822503 C53.0596398,60.7822503 58.7826087,55.0592814 58.7826087,47.9996416 C58.7826087,40.9400018 53.0596398,35.2170329 46,35.2170329 L46,35.2170329 Z" id="Shape" fill="#292F36"></path>
                <path d="M46.5,54.9996416 C42.3578644,54.9996416 39,51.8656348 39,47.9996416 C39,44.1336484 42.3578644,40.9996416 46.5,40.9996416 C50.6421356,40.9996416 54,44.1336484 54,47.9996416 C54,51.8656348 50.6421356,54.9996416 46.5,54.9996416 L46.5,54.9996416 Z" id="Path" fill="#FFFFFF"></path>
                <path d="M47,55.9996416 C42.581722,55.9996416 39,52.4179196 39,47.9996416 C39,43.5813636 42.581722,39.9996416 47,39.9996416 C51.418278,39.9996416 55,43.5813636 55,47.9996416 C55,52.4179196 51.418278,55.9996416 47,55.9996416 L47,55.9996416 Z M47,41.2304108 C43.2614571,41.2304108 40.2307692,44.2610987 40.2307692,47.9996416 C40.2307692,51.7381845 43.2614571,54.7688724 47,54.7688724 C50.7385429,54.7688724 53.7692308,51.7381845 53.7692308,47.9996416 C53.7692308,44.2610987 50.7385429,41.2304108 47,41.2304108 L47,41.2304108 Z" id="Shape" fill="#292F36"></path>
                <circle id="Oval" fill="#FF8888" cx="46" cy="47.9996416" r="1"></circle>
                <path d="M46,49.9996416 C44.8954305,49.9996416 44,49.1042111 44,47.9996416 C44,46.8950721 44.8954305,45.9996416 46,45.9996416 C47.1045695,45.9996416 48,46.8950721 48,47.9996416 C48,49.1042111 47.1045695,49.9996416 46,49.9996416 L46,49.9996416 Z M46,47.3329749 C45.6318102,47.3329749 45.3333333,47.6314518 45.3333333,47.9996416 C45.3333333,48.3678314 45.6318102,48.6663083 46,48.6663083 C46.3681898,48.6663083 46.6666667,48.3678314 46.6666667,47.9996416 C46.6666667,47.6314518 46.3681898,47.3329749 46,47.3329749 Z" id="Shape" fill="#292F36"></path>
                <path d="M81.3917136,42.9996416 L74.489295,42.9996416 C74.3814551,43.0018001 74.2760785,43.0341184 74.1838782,43.0933109 L69.5232186,46.0616571 L54.402035,46.0616571 L55.0342477,44.9117863 C55.1670567,44.6723928 55.1404256,44.3700374 54.9680934,44.1607036 C54.7957611,43.9513697 54.5162507,43.8818518 54.27376,43.9880137 L46.3787369,47.4020964 C46.1496027,47.501637 46,47.73767 46,47.9996416 C46,48.2616132 46.1496027,48.4976462 46.3787369,48.5971868 L54.27376,52.0080395 C54.5162507,52.1142014 54.7957611,52.0446835 54.9680934,51.8353497 C55.1404256,51.6260158 55.1670567,51.3236604 55.0342477,51.0842669 L54.402035,49.9376261 L69.5232186,49.9376261 L74.1747157,52.9059723 C74.266916,52.9651648 74.3722926,52.9974831 74.4801325,52.9996416 L81.3825511,52.9996416 C81.6288122,52.9985481 81.8503672,52.8411707 81.9444675,52.6004951 C82.0385677,52.3598195 81.9868065,52.0829232 81.8131888,51.8982204 L78.1390252,47.9996416 L81.8223513,44.1010628 C81.995969,43.91636 82.0477302,43.6394637 81.95363,43.3987881 C81.8595297,43.1581125 81.6379747,43.0007351 81.3917136,42.9996416 L81.3917136,42.9996416 Z" id="Path" fill="#FFF47D"></path>
                <path d="M81.3871759,42.9996416 L74.4332658,42.9996416 C74.3246215,43.0017539 74.2184588,43.0333801 74.1255707,43.091305 L69.4301429,45.9960857 L54.1961568,45.9960857 L54.8330857,44.8708388 C54.9668854,44.6365718 54.9400557,44.3406911 54.7664378,44.13584 C54.59282,43.930989 54.3112244,43.8629597 54.0669248,43.9668482 L46.1130055,47.3078202 C45.6022316,47.522755 46.9591672,47.0454733 47.4699411,47.2604081 L51.5992098,49.0272987 C51.8435095,49.1311872 52.125105,49.0631579 52.2987229,48.8583069 C52.4723407,48.6534558 52.4991704,48.3575751 52.3653707,48.1233081 L69.4332199,48.0031975 L74.1194168,50.9079782 C74.2123049,50.9659031 74.3184676,50.9975293 74.4271119,50.9996416 L80.2148574,50.9996416 C80.4629555,50.9985716 80.6861634,50.8445643 80.7809656,50.6090426 C80.8757678,50.3735209 80.8236204,50.1025543 80.6487076,49.9218068 L78.1102227,47.8925693 L81.821026,44.0774764 C81.9959389,43.8967289 82.0480862,43.6257623 81.953284,43.3902406 C81.8584819,43.1547189 81.635274,43.0007116 81.3871759,42.9996416 L81.3871759,42.9996416 Z" id="Path" fill="#FFF47D"></path>
                <path d="M81.7848554,52.999642 L74.9248882,52.999642 C74.7033058,52.9994044 74.4860167,52.942031 74.2965637,52.8337363 L69.8224081,50.2879703 L56.002306,50.2879703 L56.0994383,50.4452929 C56.3636363,50.870262 56.3095919,51.4068707 55.9652741,51.7774153 C55.6209563,52.1479599 55.0636404,52.2692789 54.5817465,52.0785877 L46.7565272,49.0579934 C46.2991089,48.8825902 46,48.4635831 46,47.998211 C46,47.532839 46.2991089,47.1138319 46.7565272,46.9384287 L54.6029942,43.9178343 C55.0848881,43.7271432 55.642204,43.8484622 55.9865218,44.2190068 C56.3308396,44.5895514 56.384884,45.1261601 56.120686,45.5511292 L56.002306,45.7113122 L69.8072312,45.7113122 L74.2874576,43.1655462 C74.4769105,43.0572515 74.6941996,42.9998781 74.915782,42.999642 L81.7757492,42.999642 C82.2671253,42.9992779 82.710289,43.2780489 82.8983828,43.705832 C83.0864766,44.1336151 82.9824116,44.6260589 82.6347628,44.9533032 L79.4111853,47.999642 L82.643869,51.0459793 C82.9915178,51.3732236 83.0955827,51.8656674 82.9074889,52.2934505 C82.7193951,52.7212336 82.2762314,53.0000046 81.7848554,52.999642 L81.7848554,52.999642 Z M54.9611694,49.1438058 L69.9893542,49.1438058 C70.0965309,49.1457173 70.2012594,49.1743378 70.2928926,49.2267577 L74.915782,51.8554757 L81.7757492,51.8554757 L78.1150765,48.4029592 C78.0010814,48.2956548 77.9370289,48.150047 77.9370289,47.998211 C77.9370289,47.8463751 78.0010814,47.7007673 78.1150765,47.5934628 L81.7757492,44.1409464 L74.915782,44.1409464 L70.2928926,46.7696644 C70.2012594,46.8220842 70.0965309,46.8507048 69.9893542,46.8526163 L54.9611694,46.8526163 C54.744393,46.8524069 54.5441842,46.7432859 54.4358923,46.5663214 C54.3276003,46.3893568 54.3276597,46.1714051 54.436048,45.9944929 L55.0643725,44.9761865 L47.2179056,47.9996412 L55.0643725,51.0202356 L54.436048,50.0019291 C54.3276597,49.825017 54.3276003,49.6070653 54.4358923,49.4301007 C54.5441842,49.2531362 54.744393,49.1440152 54.9611694,49.1438058 Z" id="Shape" fill="#292F36"></path>
            </g>
        </g>
    </g>
</svg>