<?xml version="1.0" encoding="UTF-8"?>
<svg width="116px" height="108px" viewBox="0 0 116 108" version="1.1" xmlns="http://www.w3.org/2000/svg" xmlns:xlink="http://www.w3.org/1999/xlink">
    <!-- Generator: Sketch 64 (93537) - https://sketch.com -->
    <title>Icon Target</title>
    <desc>Created with Sketch.</desc>
    <g id="Icon-Target" stroke="none" stroke-width="1" fill="none" fill-rule="evenodd">
        <g>
            <path d="M58,108 C77.4183295,108 92.1630119,94.6412573 102.689976,81.0001576 C109.528314,72.1388718 116,65.7446208 116,54.0004838 C116,41.6508284 105.888658,30.1830787 98.3962757,21.085572 C87.7953484,8.21356417 76.7679519,0 58,0 C42.7366497,0 25.1425521,-0.1018571 14.7865016,8.87187229 C3.40876884,18.7309103 0,38.3879527 0,54.0004838 C0,68.6790666 14.0708769,80.0236724 24.2790698,89.7570988 C34.8113023,99.7994943 41.733511,108 58,108 Z" id="Oval" fill="#292F36"></path>
            <g id="target" transform="translate(15.000000, 8.000358)" fill-rule="nonzero">
                <circle id="Oval" fill="#F97171" cx="41.0081967" cy="46.5" r="31.5"></circle>
                <circle id="Oval" fill="#FF8888" cx="40.0081967" cy="44.5" r="29.5"></circle>
                <path d="M41.0081967,79 C23.0589424,79 8.50819672,64.4492544 8.50819672,46.5 C8.50819672,28.5507456 23.0589424,14 41.0081967,14 C58.9574511,14 73.5081967,28.5507456 73.5081967,46.5 C73.4873718,64.4406213 58.9488181,78.9791751 41.0081967,79 Z M41.0081967,15.5116279 C23.8937914,15.5116279 10.0198246,29.3855947 10.0198246,46.5 C10.0198246,63.6144053 23.8937914,77.4883721 41.0081967,77.4883721 C58.1226021,77.4883721 71.9965688,63.6144053 71.9965688,46.5 C71.9778241,29.393365 58.1148317,15.5303726 41.0081967,15.5116279 Z" id="Shape" fill="#292F36"></path>
                <path d="M41.5081967,70 C28.2533627,70 17.5081967,59.254834 17.5081967,46 C17.5081967,32.745166 28.2533627,22 41.5081967,22 C54.7630307,22 65.5081967,32.745166 65.5081967,46 C65.4937295,59.2488369 54.7570336,69.9855328 41.5081967,70 L41.5081967,70 Z" id="Path" fill="#FFFFFF"></path>
                <path d="M41.5081967,71 C27.701078,71 16.5081967,59.8071187 16.5081967,46 C16.5081967,32.1928813 27.701078,21 41.5081967,21 C55.3153155,21 66.5081967,32.1928813 66.5081967,46 C66.4935825,59.8010608 55.3092575,70.9853857 41.5081967,71 L41.5081967,71 Z M41.5081967,22.5151515 C28.5378731,22.5151515 18.0233482,33.0296763 18.0233482,46 C18.0233482,58.9703237 28.5378731,69.4848485 41.5081967,69.4848485 C54.4785204,69.4848485 64.9930452,58.9703237 64.9930452,46 C64.9784329,33.0357338 54.4724629,22.5297639 41.5081967,22.5151515 Z" id="Shape" fill="#292F36"></path>
                <path d="M41.0081967,63 C31.8954983,63 24.5081967,55.6126984 24.5081967,46.5 C24.5081967,37.3873016 31.8954983,30 41.0081967,30 C50.1208951,30 57.5081967,37.3873016 57.5081967,46.5 C57.5081967,50.8760721 55.7698089,55.0729116 52.6754586,58.1672619 C49.5811084,61.2616121 45.3842688,63 41.0081967,63 Z" id="Path" fill="#FF8888"></path>
                <path d="M41.0081967,64 C31.3432136,64 23.5081967,56.1649831 23.5081967,46.5 C23.5081967,36.8350169 31.3432136,29 41.0081967,29 C50.6731798,29 58.5081967,36.8350169 58.5081967,46.5 C58.4977131,56.1606373 50.6688341,63.9895164 41.0081967,64 Z M41.0081967,30.5217391 C32.1836469,30.5217391 25.0299359,37.6754502 25.0299359,46.5 C25.0299359,55.3245498 32.1836469,62.4782609 41.0081967,62.4782609 C49.8327465,62.4782609 56.9864576,55.3245498 56.9864576,46.5 C56.9864576,37.6754502 49.8327465,30.5217391 41.0081967,30.5217391 L41.0081967,30.5217391 Z" id="Shape" fill="#292F36"></path>
                <path d="M41.5081967,55 C36.537634,55 32.5081967,50.9705627 32.5081967,46 C32.5081967,41.0294373 36.537634,37 41.5081967,37 C46.4787595,37 50.5081967,41.0294373 50.5081967,46 C50.5081967,50.9705627 46.4787595,55 41.5081967,55 L41.5081967,55 Z" id="Path" fill="#FFFFFF"></path>
                <path d="M41.5081967,56 C35.9853492,56 31.5081967,51.5228475 31.5081967,46 C31.5081967,40.4771525 35.9853492,36 41.5081967,36 C47.0310442,36 51.5081967,40.4771525 51.5081967,46 C51.5081967,51.5228475 47.0310442,56 41.5081967,56 L41.5081967,56 Z M41.5081967,37.5384615 C36.8350181,37.5384615 33.0466583,41.3268213 33.0466583,46 C33.0466583,50.6731787 36.8350181,54.4615385 41.5081967,54.4615385 C46.1813754,54.4615385 49.9697352,50.6731787 49.9697352,46 C49.9697352,41.3268213 46.1813754,37.5384615 41.5081967,37.5384615 L41.5081967,37.5384615 Z" id="Shape" fill="#292F36"></path>
                <circle id="Oval" fill="#FF8888" cx="41.0081967" cy="46.5" r="1.5"></circle>
                <path d="M41.0081967,49 C39.6274848,49 38.5081967,47.8807119 38.5081967,46.5 C38.5081967,45.1192881 39.6274848,44 41.0081967,44 C42.3889086,44 43.5081967,45.1192881 43.5081967,46.5 C43.5081967,47.8807119 42.3889086,49 41.0081967,49 L41.0081967,49 Z M41.0081967,45.6666667 C40.5479594,45.6666667 40.1748634,46.0397627 40.1748634,46.5 C40.1748634,46.9602373 40.5479594,47.3333333 41.0081967,47.3333333 C41.468434,47.3333333 41.8415301,46.9602373 41.8415301,46.5 C41.8415301,46.0397627 41.468434,45.6666667 41.0081967,45.6666667 Z" id="Shape" fill="#292F36"></path>
                <path d="M84.7647356,40 L76.3284462,40 C76.1966419,40.0025902 76.0678482,40.0413722 75.955159,40.1124031 L70.2587972,43.6744186 L51.7773506,43.6744186 L52.550055,42.2945736 C52.7123771,42.0073015 52.679828,41.6444749 52.4691997,41.3932743 C52.2585714,41.1420737 51.9169475,41.0586522 51.62057,41.1860465 L41.9710973,45.2829457 C41.6910445,45.4023945 41.5081967,45.6856341 41.5081967,46 C41.5081967,46.3143659 41.6910445,46.5976055 41.9710973,46.7170543 L51.62057,50.8100775 C51.9169475,50.9374718 52.2585714,50.8540503 52.4691997,50.6028497 C52.679828,50.3516491 52.7123771,49.9888226 52.550055,49.7015504 L51.7773506,48.3255814 L70.2587972,48.3255814 L75.9439604,51.8875969 C76.0566496,51.9586278 76.1854433,51.9974098 76.3172475,52 L84.753537,52 C85.0545227,51.9986878 85.3253122,51.8098349 85.4403236,51.5210242 C85.555335,51.2322135 85.4920713,50.8999379 85.2798719,50.6782946 L80.7892275,46 L85.2910705,41.3217054 C85.5032699,41.1000621 85.5665336,40.7677865 85.4515222,40.4789758 C85.3365109,40.1901651 85.0657213,40.0013122 84.7647356,40 L84.7647356,40 Z" id="Path" fill="#FFF47D"></path>
                <path d="M84.7591895,40 L76.2599661,40 C76.1271785,40.0026404 75.9974241,40.0421731 75.8838942,40.1145792 L70.1450381,43.7455551 L51.5257216,43.7455551 L52.3041903,42.3389964 C52.4677233,42.0461627 52.4349314,41.6763119 52.2227319,41.420248 C52.0105323,41.1641842 51.6663599,41.0791477 51.3677715,41.2090083 L41.6463146,45.3852232 C41.0220354,45.6538917 42.6805121,45.0572896 43.3047914,45.3259581 L48.3516754,47.5345713 C48.6502638,47.6644319 48.9944362,47.5793954 49.2066358,47.3233316 C49.4188353,47.0672677 49.4516272,46.6974169 49.2880942,46.4045832 L70.1487988,46.2544449 L75.8763728,49.8854208 C75.9899027,49.9578269 76.1196571,49.9973596 76.2524446,50 L83.3263558,50 C83.6295868,49.9986624 83.9023964,49.8061534 84.0182658,49.5117513 C84.1341351,49.2173492 84.0703995,48.8786408 83.8566171,48.6527064 L80.7540245,46.1161596 L85.2894508,41.3472936 C85.5032332,41.1213592 85.5669688,40.7826508 85.4510994,40.4882487 C85.3352301,40.1938466 85.0624205,40.0013376 84.7591895,40 L84.7591895,40 Z" id="Path" fill="#FFF47D"></path>
                <path d="M84.9974764,53.0000005 L76.4688685,53.0000005 C76.1933877,52.9996926 75.9232445,52.9251072 75.6877084,52.784324 L70.1252447,49.474828 L52.9434961,49.474828 L53.0642552,49.6793474 C53.3927175,50.2318072 53.3255273,50.9293986 52.8974564,51.4111066 C52.4693856,51.8928146 51.7765064,52.0505293 51.177395,51.8026308 L41.4487441,47.8758579 C40.8800618,47.6478337 40.5081967,47.1031244 40.5081967,46.4981407 C40.5081967,45.8931571 40.8800618,45.3484478 41.4487441,45.1204235 L51.2038111,41.1936506 C51.8029224,40.9457521 52.4958017,41.1034668 52.9238725,41.5851749 C53.3519433,42.0668829 53.4191336,42.7644743 53.0906712,43.3169341 L52.9434961,43.525172 L70.1063761,43.525172 L75.6763872,40.215676 C75.9119233,40.0748928 76.1820665,40.0003074 76.4575473,40.0000005 L84.9861552,40.0000005 C85.5970551,39.9995272 86.1480155,40.3619295 86.3818618,40.9180475 C86.6157081,41.4741656 86.4863301,42.1143427 86.0541181,42.5397603 L82.0464271,46.5000005 L86.0654392,50.4602397 C86.4976512,50.8856573 86.6270293,51.5258344 86.3931829,52.0819525 C86.1593366,52.6380705 85.6083763,53.0004728 84.9974764,53.0000005 L84.9974764,53.0000005 Z M51.6491101,47.987414 L70.3327993,47.987414 C70.4660459,47.989899 70.5962489,48.0271057 70.7101713,48.0952515 L76.4575473,51.5125851 L84.9861552,51.5125851 L80.4350485,47.0243134 C80.2933249,46.8848176 80.2136922,46.6955274 80.2136922,46.4981407 C80.2136922,46.300754 80.2933249,46.1114639 80.4350485,45.971968 L84.9861552,41.4836964 L76.4575473,41.4836964 L70.7101713,44.90103 C70.5962489,44.9691758 70.4660459,45.0063825 70.3327993,45.0088675 L51.6491101,45.0088675 C51.3796042,45.0085953 51.130696,44.866738 50.9960628,44.636684 C50.8614295,44.4066301 50.8615033,44.1232928 50.9962565,43.893307 L51.7774166,42.5695086 L42.0223496,46.5 L51.7774166,50.4267729 L50.9962565,49.1029745 C50.8615033,48.8729887 50.8614295,48.5896514 50.9960628,48.3595974 C51.130696,48.1295435 51.3796042,47.9876862 51.6491101,47.987414 Z" id="Shape" fill="#292F36"></path>
                <circle id="Oval" fill="#D4FFD4" cx="71.5081967" cy="69" r="2"></circle>
                <circle id="Oval" fill="#D4FFD4" cx="64.0081967" cy="12.5" r="1.5"></circle>
                <circle id="Oval" fill="#D4FFD4" cx="83.5081967" cy="77" r="1"></circle>
                <circle id="Oval" fill="#D4FFD4" cx="6.50819672" cy="31" r="1"></circle>
                <circle id="Oval" fill="#D4FFD4" cx="74.0081967" cy="15.5" r="1"></circle>
                <circle id="Oval" fill="#FFBDBD" cx="46.5081967" cy="2" r="2"></circle>
                <circle id="Oval" fill="#FFBDBD" cx="2.00819672" cy="44.5" r="1.5"></circle>
                <circle id="Oval" fill="#FFBDBD" cx="87.5081967" cy="35" r="1"></circle>
                <circle id="Oval" fill="#FFBDBD" cx="19.5081967" cy="78" r="1"></circle>
                <circle id="Oval" fill="#FFBDBD" cx="87.0081967" cy="23.5" r="1"></circle>
                <circle id="Oval" fill="#BBF1FF" cx="92.5081967" cy="47" r="2"></circle>
                <circle id="Oval" fill="#BBF1FF" cx="22.0081967" cy="10.5" r="1.5"></circle>
                <circle id="Oval" fill="#BBF1FF" cx="9.50819672" cy="67" r="1"></circle>
                <circle id="Oval" fill="#BBF1FF" cx="62.5081967" cy="81" r="1"></circle>
                <circle id="Oval" fill="#BBF1FF" cx="78.0081967" cy="29.5" r="1"></circle>
                <circle id="Oval" fill="#FFF4C5" cx="51.5081967" cy="90" r="2"></circle>
                <circle id="Oval" fill="#FFF4C5" cx="32.0081967" cy="86.5" r="1.5"></circle>
                <circle id="Oval" fill="#FFF4C5" cx="72.5081967" cy="24" r="1"></circle>
                <circle id="Oval" fill="#FFF4C5" cx="35.5081967" cy="5" r="1"></circle>
                <circle id="Oval" fill="#FFF4C5" cx="8.00819672" cy="17.5" r="1"></circle>
            </g>
        </g>
    </g>
</svg>