<?xml version="1.0" encoding="UTF-8"?>
<svg width="116px" height="108px" viewBox="0 0 116 108" version="1.1" xmlns="http://www.w3.org/2000/svg" xmlns:xlink="http://www.w3.org/1999/xlink">
    <!-- Generator: Sketch 64 (93537) - https://sketch.com -->
    <title>Icon vox</title>
    <desc>Created with Sketch.</desc>
    <g id="Icon-vox" stroke="none" stroke-width="1" fill="none" fill-rule="evenodd">
        <g>
            <path d="M58,107.999642 C77.4183295,107.999642 92.1630119,94.6408989 102.689976,80.9997992 C109.528314,72.1385134 116,65.7442624 116,54.0001254 C116,41.65047 105.888658,30.1827203 98.3962757,21.0852136 C87.7953484,8.21320577 76.7679519,-0.000358399363 58,-0.000358399363 C42.7366497,-0.000358399363 25.1425521,-0.102215499 14.7865016,8.87151389 C3.40876884,18.7305519 0,38.3875943 0,54.0001254 C0,68.6787082 14.0708769,80.023314 24.2790698,89.7567404 C34.8113023,99.7991359 41.733511,107.999642 58,107.999642 Z" id="Oval" fill="#292F36"></path>
            <g id="announcement" transform="translate(4.000000, 8.000000)" fill-rule="nonzero">
                <polygon id="Rectangle" fill="#19CBCC" transform="translate(12.488372, 69.500000) rotate(90.000000) translate(-12.488372, -69.500000) " points="-1.51162791 61 26.4883721 61 26.4883721 78 -1.51162791 78"></polygon>
                <polygon id="Rectangle" fill="#19CBCC" transform="translate(11.988372, 68.500000) rotate(90.000000) translate(-11.988372, -68.500000) " points="-0.511627907 61 24.4883721 61 24.4883721 76 -0.511627907 76"></polygon>
                <path d="M21.6247357,85 L4.35200846,85 C3.87503526,85 3.48837209,84.6049571 3.48837209,84.1176471 L3.48837209,55.8823529 C3.48837209,55.3950429 3.87503526,55 4.35200846,55 L21.6247357,55 C22.1017089,55 22.4883721,55.3950429 22.4883721,55.8823529 L22.4883721,84.1176471 C22.4883721,84.6049571 22.1017089,85 21.6247357,85 Z M5.21564482,83.2352941 L20.7610994,83.2352941 L20.7610994,56.7647059 L5.21564482,56.7647059 L5.21564482,83.2352941 Z" id="Shape" fill="#292F36"></path>
                <polygon id="Rectangle" fill="#F7FFF7" transform="translate(25.988372, 70.000000) rotate(90.000000) translate(-25.988372, -70.000000) " points="13.4883721 65 38.4883721 65 38.4883721 75 13.4883721 75"></polygon>
                <polygon id="Rectangle" fill="#FFFFFF" transform="translate(26.988372, 67.500000) rotate(90.000000) translate(-26.988372, -67.500000) " points="16.4883721 65 37.4883721 65 37.4883721 70 16.4883721 70"></polygon>
                <path d="M31.6303378,83 L22.3464064,83 C21.8725271,83 21.4883721,82.6119801 21.4883721,82.1333333 L21.4883721,57.8666667 C21.4883721,57.3880199 21.8725271,57 22.3464064,57 L31.6303378,57 C32.104217,57 32.4883721,57.3880199 32.4883721,57.8666667 L32.4883721,82.1333333 C32.4883721,82.6119801 32.104217,83 31.6303378,83 Z M23.2258916,81.2666667 L30.7723035,81.2666667 L30.7723035,58.7333333 L23.2044407,58.7333333 L23.2258916,81.2666667 Z" id="Shape" fill="#292F36"></path>
                <path d="M65.4883721,61.1855231 L65.4883721,79.8905109 C65.4883721,82.7124038 63.1761212,85 60.3238151,85 L53.9498911,85 C50.7278684,84.9963776 47.5804888,84.03999 44.9119164,82.2536496 L44.2534354,81.8278589 C41.584863,80.0415186 38.4374834,79.0851309 35.2154607,79.0815085 L31.4883721,79.0815085 L31.4883721,58.6435523 L36.6529291,58.6435523 C37.2945381,58.6305071 37.9082492,58.3815685 38.374448,57.9452555 L46.982043,50 L46.982043,58.6307786 L62.9060936,58.6307786 C64.3322466,58.6307786 65.4883721,59.7745767 65.4883721,61.1855231 Z" id="Path" fill="#F7FFF7"></path>
                <path d="M60.898701,59.8860851 L45.6671189,59.8860851 L45.6671189,52 L38.8864968,58.3244412 C38.4071485,58.7720399 37.7763501,59.0209111 37.1212044,59.0209084 L34.4883721,59.0209084 L34.4883721,75.9870224 L35.6709886,75.9870224 C38.9022353,75.9907026 42.0586253,76.9623585 44.7348373,78.777217 L45.3952035,79.2098053 C48.0714155,81.0246638 51.2278055,81.9963198 54.4590523,82 L58.3090299,82 C61.1695016,82 63.4883721,79.6758833 63.4883721,76.8089402 L63.4883721,62.481615 C63.4883721,61.0481434 62.3289369,59.8860851 60.898701,59.8860851 L60.898701,59.8860851 Z" id="Path" fill="#F7FFF7"></path>
                <path d="M60.3836664,85.9998784 L53.9670097,85.9998784 C50.5401242,86.0074569 47.1901874,84.9928904 44.3528564,83.087998 L43.6942934,82.6585355 C41.1478927,80.945933 38.1408787,80.0316959 35.0636519,80.0345195 L31.3549024,80.0345195 C30.8763309,80.0345195 30.4883721,79.6499657 30.4883721,79.1755945 L30.4883721,58.5613937 C30.4883721,58.0870225 30.8763309,57.7024687 31.3549024,57.7024687 L36.554084,57.7024687 C36.9928231,57.7032217 37.4155216,57.5390027 37.7368978,57.2429438 L46.4022005,49.2291733 C46.6544593,48.9972719 47.0212344,48.9352654 47.3367808,49.0711745 C47.6523271,49.2070835 47.8568678,49.5151615 47.8579713,49.8561885 L47.8579713,57.7024687 L63.022251,57.7024687 C64.9365368,57.7024687 66.4883721,59.240684 66.4883721,61.1381688 L66.4883721,80.0044571 C66.4837983,81.6028048 65.837353,83.133566 64.6918666,84.2585229 C63.5463801,85.3834798 61.9961396,86.0100354 60.3836664,85.9998784 L60.3836664,85.9998784 Z M32.2214326,78.2994909 L35.0896478,78.2994909 C38.5125591,78.2956404 41.8576301,79.3116011 44.6908032,81.2155414 L45.3493662,81.6450039 C47.8957668,83.3576064 50.9027808,84.2718435 53.9800077,84.2690264 L60.3836664,84.2690264 C62.7765236,84.2690264 64.7163177,82.3462507 64.7163177,79.9743948 L64.7163177,61.1209903 C64.7163177,60.1722479 63.9404001,59.4031403 62.9832572,59.4031403 L46.9524472,59.4031403 C46.4738757,59.4031403 46.0859169,59.0185864 46.0859169,58.5442152 L46.0859169,51.810243 L38.889383,58.4797959 C38.2483905,59.0724663 37.4046592,59.4023931 36.5280881,59.4031403 L32.2214326,59.4031403 L32.2214326,78.2994909 Z" id="Shape" fill="#292F36"></path>
                <rect id="Rectangle" fill="#FFF47D" x="47.4883721" y="44" width="16" height="16"></rect>
                <rect id="Rectangle" fill="#FFF47D" x="47.4883721" y="47" width="13" height="13"></rect>
                <path d="M63.6103233,60 L47.3664209,60 C46.8814879,60 46.4883721,59.619442 46.4883721,59.15 L46.4883721,43.85 C46.4883721,43.380558 46.8814879,43 47.3664209,43 L63.6103233,43 C64.0952563,43 64.4883721,43.380558 64.4883721,43.85 L64.4883721,59.15 C64.4883721,59.619442 64.0952563,60 63.6103233,60 Z M48.2444697,58.3 L62.7322745,58.3 L62.7322745,44.7 L48.2444697,44.7 L48.2444697,58.3 Z" id="Shape" fill="#292F36"></path>
                <path d="M98.9883721,53.8513111 L67.4883721,42.9394572 L67.4883721,16.0605157 L98.9883721,5.14866185 C99.792031,4.86732963 100.683618,4.98989068 101.379478,5.47735278 C102.075339,5.96481488 102.488819,6.75647562 102.488372,7.60047182 L102.488372,51.4211602 C102.481754,52.2613276 102.065359,53.0465044 101.370593,53.5289003 C100.675827,54.0112962 99.7884003,54.1314009 98.9883721,53.8513111 L98.9883721,53.8513111 Z" id="Path" fill="#F97171"></path>
                <path d="M95.0376973,49.8512062 L67.4883721,40.1472887 L67.4883721,16.7781403 L95.0376973,6.68849309 C96.7199012,6.09906353 98.4883721,5.31026809 98.4883721,7.12189718 L98.4883721,47.4284774 C98.4790853,48.2675401 98.0674182,49.0505377 97.3828698,49.5311611 C96.6983214,50.0117846 95.8250258,50.130963 95.0376973,49.8512062 Z" id="Path" fill="#FF6B6B"></path>
                <path d="M100.067965,55 C99.6780981,54.999313 99.2911586,54.9316151 98.9235427,54.799775 L98.9235427,54.799775 L68.0627271,43.8352819 C67.7184395,43.7130578 67.4880014,43.3829948 67.4883725,43.0126184 L67.4883725,15.9822482 C67.4883725,15.6107336 67.7210338,15.2803269 68.0670133,15.1595847 L98.9278289,4.19509157 C99.9764855,3.82281169 101.137759,3.98949677 102.043735,4.64233763 C102.94971,5.29517848 103.488373,6.3532719 103.488373,7.48139262 L103.488373,51.513474 C103.488373,53.4366252 101.953165,54.9956473 100.059392,54.9956473 L100.067965,55 Z M99.4893243,53.1588009 C100.01401,53.3450679 100.595056,53.2614787 101.048151,52.9345483 C101.501247,52.6076179 101.770162,52.0779184 101.769597,51.513474 L101.769597,7.48139262 C101.770162,6.91694817 101.501247,6.38724872 101.048151,6.0603183 C100.595056,5.73338787 100.01401,5.64979868 99.4893243,5.83606574 L69.1985765,16.6003339 L69.1985765,42.3988854 L99.4893243,53.1588009 Z" id="Shape" fill="#292F36"></path>
                <rect id="Rectangle" fill="#F7FFF7" x="43.4883721" y="17" width="24" height="27"></rect>
                <rect id="Rectangle" fill="#FFFFFF" x="43.4883721" y="17" width="24" height="24"></rect>
                <path d="M67.590737,45 L43.3860072,45 C42.890257,45 42.4883721,44.6071485 42.4883721,44.1225416 L42.4883721,16.8774584 C42.4883721,16.3928515 42.890257,16 43.3860072,16 L67.590737,16 C68.0864872,16 68.4883721,16.3928515 68.4883721,16.8774584 L68.4883721,44.1225416 C68.4883721,44.6071485 68.0864872,45 67.590737,45 Z M44.2836422,43.2450832 L66.6931019,43.2450832 L66.6931019,17.7549168 L44.2836422,17.7549168 L44.2836422,43.2450832 Z" id="Shape" fill="#292F36"></path>
                <path d="M41.7011381,17 L43.4883721,17 L43.4883721,44 L41.7011381,44 C34.4039289,44 28.4883721,37.9558441 28.4883721,30.5 L28.4883721,30.5 C28.4883721,23.0441559 34.4039289,17 41.7011381,17 L41.7011381,17 Z" id="Path" fill="#F97171"></path>
                <path d="M39.9679639,17 L43.4883721,17 L43.4883721,41 L39.9679639,41 C33.6279604,41 28.4883721,35.6204435 28.4883721,28.9844243 L28.4883721,28.9844243 C28.5047791,22.3605737 33.639565,17 39.9679639,17 Z" id="Path" fill="#FF6B6B"></path>
                <path d="M43.6221301,45 L41.8030218,45 C33.8972591,45 27.4883721,38.5081289 27.4883721,30.5 C27.4883721,22.4918711 33.8972591,16 41.8030218,16 L43.6221301,16 C44.1005423,16 44.4883721,16.3928515 44.4883721,16.8774584 L44.4883721,44.1225416 C44.4883721,44.6071485 44.1005423,45 43.6221301,45 Z M41.8030218,17.7549168 C34.8540836,17.7549168 29.2208562,23.4610849 29.2208562,30.5 C29.2208562,37.5389151 34.8540836,43.2450832 41.8030218,43.2450832 L42.755888,43.2450832 L42.755888,17.7549168 L41.8030218,17.7549168 Z" id="Shape" fill="#292F36"></path>
                <circle id="Oval" fill="#292F36" cx="12.9883721" cy="76.5" r="2.5"></circle>
                <circle id="Oval" fill="#D4FFD4" cx="70.4883721" cy="52" r="2"></circle>
                <circle id="Oval" fill="#D4FFD4" cx="18.9883721" cy="16.5" r="1.5"></circle>
                <circle id="Oval" fill="#D4FFD4" cx="33.4883721" cy="10" r="1"></circle>
                <circle id="Oval" fill="#D4FFD4" cx="73.4883721" cy="80" r="1"></circle>
                <circle id="Oval" fill="#D4FFD4" cx="71.9883721" cy="74.5" r="1"></circle>
                <circle id="Oval" fill="#FFBDBD" cx="104.488372" cy="66" r="2"></circle>
                <circle id="Oval" fill="#FFBDBD" cx="41.9883721" cy="90.5" r="1.5"></circle>
                <circle id="Oval" fill="#FFBDBD" cx="85.4883721" cy="65" r="1"></circle>
                <circle id="Oval" fill="#FFBDBD" cx="3.48837209" cy="50" r="1"></circle>
                <circle id="Oval" fill="#FFBDBD" cx="78.9883721" cy="0.5" r="1"></circle>
                <circle id="Oval" fill="#BBF1FF" cx="51.4883721" cy="9" r="2"></circle>
                <circle id="Oval" fill="#BBF1FF" cx="23.9883721" cy="47.5" r="1.5"></circle>
                <circle id="Oval" fill="#BBF1FF" cx="12.4883721" cy="90" r="1"></circle>
                <circle id="Oval" fill="#BBF1FF" cx="12.4883721" cy="35" r="1"></circle>
                <circle id="Oval" fill="#BBF1FF" cx="72.9883721" cy="11.5" r="1"></circle>
                <circle id="Oval" fill="#FFF4C5" cx="2.48837209" cy="42" r="2"></circle>
                <circle id="Oval" fill="#FFF4C5" cx="80.9883721" cy="74.5" r="1.5"></circle>
                <circle id="Oval" fill="#FFF4C5" cx="77.4883721" cy="64" r="1"></circle>
                <circle id="Oval" fill="#FFF4C5" cx="65.4883721" cy="2" r="1"></circle>
                <circle id="Oval" fill="#FFF4C5" cx="88.9883721" cy="86.5" r="1"></circle>
            </g>
        </g>
    </g>
</svg>