<?xml version="1.0" encoding="UTF-8"?>
<svg width="116px" height="108px" viewBox="0 0 116 108" version="1.1" xmlns="http://www.w3.org/2000/svg" xmlns:xlink="http://www.w3.org/1999/xlink">
    <!-- Generator: Sketch 64 (93537) - https://sketch.com -->
    <title>Icon vox</title>
    <desc>Created with Sketch.</desc>
    <g id="Icon-vox" stroke="none" stroke-width="1" fill="none" fill-rule="evenodd">
        <g>
            <path d="M58,107.999642 C77.4183295,107.999642 92.1630119,94.6408989 102.689976,80.9997992 C109.528314,72.1385134 116,65.7442624 116,54.0001254 C116,41.65047 105.888658,30.1827203 98.3962757,21.0852136 C87.7953484,8.21320577 76.7679519,-0.000358399363 58,-0.000358399363 C42.7366497,-0.000358399363 25.1425521,-0.102215499 14.7865016,8.87151389 C3.40876884,18.7305519 0,38.3875943 0,54.0001254 C0,68.6787082 14.0708769,80.023314 24.2790698,89.7567404 C34.8113023,99.7991359 41.733511,107.999642 58,107.999642 Z" id="Oval" fill="#292F36"></path>
            <g id="Group" transform="translate(26.000000, 20.000000)" fill-rule="nonzero">
                <circle id="Oval" fill="#D4FFD4" cx="56.5" cy="55.5" r="1.5"></circle>
                <circle id="Oval" fill="#D4FFD4" cx="51" cy="10" r="1"></circle>
                <circle id="Oval" fill="#D4FFD4" cx="67" cy="62" r="1"></circle>
                <circle id="Oval" fill="#D4FFD4" cx="4" cy="25" r="1"></circle>
                <circle id="Oval" fill="#D4FFD4" cx="58.5" cy="12.5" r="1"></circle>
                <circle id="Oval" fill="#FFBDBD" cx="36.5" cy="1.5" r="1.5"></circle>
                <circle id="Oval" fill="#FFBDBD" cx="1" cy="36" r="1"></circle>
                <circle id="Oval" fill="#FFBDBD" cx="70" cy="28" r="1"></circle>
                <circle id="Oval" fill="#FFBDBD" cx="15" cy="63" r="1"></circle>
                <circle id="Oval" fill="#FFBDBD" cx="69.5" cy="18.5" r="1"></circle>
                <circle id="Oval" fill="#BBF1FF" cx="73.5" cy="37.5" r="1.5"></circle>
                <circle id="Oval" fill="#BBF1FF" cx="17" cy="8" r="1"></circle>
                <circle id="Oval" fill="#BBF1FF" cx="7" cy="54" r="1"></circle>
                <circle id="Oval" fill="#BBF1FF" cx="50" cy="65" r="1"></circle>
                <circle id="Oval" fill="#BBF1FF" cx="62.5" cy="23.5" r="1"></circle>
                <circle id="Oval" fill="#FFF4C5" cx="40.5" cy="72.5" r="1.5"></circle>
                <circle id="Oval" fill="#FFF4C5" cx="25" cy="70" r="1"></circle>
                <circle id="Oval" fill="#FFF4C5" cx="58" cy="19" r="1"></circle>
                <circle id="Oval" fill="#FFF4C5" cx="28" cy="4" r="1"></circle>
                <circle id="Oval" fill="#FFF4C5" cx="5.5" cy="14.5" r="1"></circle>
            </g>
            <g id="Group" transform="translate(46.500000, 38.000000) scale(1, -1) translate(-46.500000, -38.000000) translate(11.000000, 6.000000)" fill-rule="nonzero">
                <circle id="Oval" fill="#D4FFD4" cx="56.5" cy="55.5" r="1.5"></circle>
                <circle id="Oval" fill="#D4FFD4" cx="51" cy="10" r="1"></circle>
                <circle id="Oval" fill="#D4FFD4" cx="67" cy="62" r="1"></circle>
                <circle id="Oval" fill="#D4FFD4" cx="4" cy="25" r="1"></circle>
                <circle id="Oval" fill="#D4FFD4" cx="58.5" cy="12.5" r="1"></circle>
                <circle id="Oval" fill="#FFBDBD" cx="36.5" cy="1.5" r="1.5"></circle>
                <circle id="Oval" fill="#FFBDBD" cx="1" cy="36" r="1"></circle>
                <circle id="Oval" fill="#FFBDBD" cx="70" cy="28" r="1"></circle>
                <circle id="Oval" fill="#FFBDBD" cx="15" cy="63" r="1"></circle>
                <circle id="Oval" fill="#FFBDBD" cx="69.5" cy="18.5" r="1"></circle>
            </g>
            <g id="Group" transform="translate(56.500000, 38.000000) scale(-1, 1) translate(-56.500000, -38.000000) translate(21.000000, 6.000000)" fill-rule="nonzero">
                <circle id="Oval" fill="#D4FFD4" cx="56.5" cy="55.5" r="1.5"></circle>
                <circle id="Oval" fill="#D4FFD4" cx="51" cy="10" r="1"></circle>
                <circle id="Oval" fill="#D4FFD4" cx="67" cy="62" r="1"></circle>
                <circle id="Oval" fill="#D4FFD4" cx="4" cy="25" r="1"></circle>
                <circle id="Oval" fill="#D4FFD4" cx="58.5" cy="12.5" r="1"></circle>
                <circle id="Oval" fill="#FFBDBD" cx="36.5" cy="1.5" r="1.5"></circle>
                <circle id="Oval" fill="#FFBDBD" cx="1" cy="36" r="1"></circle>
                <circle id="Oval" fill="#FFBDBD" cx="70" cy="28" r="1"></circle>
                <circle id="Oval" fill="#FFBDBD" cx="15" cy="63" r="1"></circle>
                <circle id="Oval" fill="#FFBDBD" cx="69.5" cy="18.5" r="1"></circle>
            </g>
            <g id="announcement" transform="translate(21.000000, 23.000000)" fill-rule="nonzero">
                <rect id="Rectangle" fill="#19CBCC" transform="translate(7.000000, 47.500000) rotate(90.000000) translate(-7.000000, -47.500000) " x="-2" y="41" width="18" height="13"></rect>
                <path d="M13.3636364,60 L0.636363636,60 C0.284909705,60 0,59.7103019 0,59.3529412 L0,38.6470588 C0,38.2896981 0.284909705,38 0.636363636,38 L13.3636364,38 C13.7150903,38 14,38.2896981 14,38.6470588 L14,59.3529412 C14,59.7103019 13.7150903,60 13.3636364,60 Z M1.27272727,58.7058824 L12.7272727,58.7058824 L12.7272727,39.2941176 L1.27272727,39.2941176 L1.27272727,58.7058824 Z" id="Shape" fill="#292F36"></path>
                <polygon id="Rectangle" fill="#F7FFF7" transform="translate(16.500000, 48.500000) rotate(90.000000) translate(-16.500000, -48.500000) " points="7.5 45.5 25.5 45.5 25.5 51.5 7.5 51.5"></polygon>
                <polygon id="Rectangle" fill="#FFFFFF" transform="translate(17.000000, 47.000000) rotate(90.000000) translate(-17.000000, -47.000000) " points="9 45 25 45 25 49 9 49"></polygon>
                <path d="M20.375975,58 L13.624025,58 C13.2793855,58 13,57.716447 13,57.3666667 L13,39.6333333 C13,39.283553 13.2793855,39 13.624025,39 L20.375975,39 C20.7206145,39 21,39.283553 21,39.6333333 L21,57.3666667 C21,57.716447 20.7206145,58 20.375975,58 Z M14.2636505,56.7333333 L19.7519501,56.7333333 L19.7519501,40.2666667 L14.2480499,40.2666667 L14.2636505,56.7333333 Z" id="Shape" fill="#292F36"></path>
                <path d="M45,42.3092457 L45,56.2043796 C45,58.3006428 43.2998155,60 41.2025316,60 L36.5158228,60 C34.1466885,59.9973091 31.8324387,59.2868497 29.8702532,57.959854 L29.3860759,57.6435523 C27.4238904,56.3165566 25.1096407,55.6060973 22.7405063,55.6034063 L20,55.6034063 L20,40.4209246 L23.7974684,40.4209246 C24.2692397,40.4112339 24.7204978,40.2263081 25.0632911,39.9021898 L31.3924051,34 L31.3924051,40.4114355 L43.1012658,40.4114355 C44.1499078,40.4114355 45,41.2611141 45,42.3092457 Z" id="Path" fill="#F7FFF7"></path>
                <path d="M42.1247209,41.7831291 L31.0949546,41.7831291 L31.0949546,36 L26.1848489,40.6379236 C25.8377347,40.9661626 25.3809496,41.1486681 24.9065337,41.1486662 L23,41.1486662 L23,53.5904831 L23.8563774,53.5904831 C26.1962458,53.5931819 28.4819075,54.3057296 30.4198541,55.6366258 L30.8980503,55.9538572 C32.8359969,57.2847535 35.1216587,57.9973012 37.461527,58 L40.2494419,58 C42.3208179,58 44,56.2956478 44,54.1932228 L44,43.6865177 C44,42.6353052 43.160409,41.7831291 42.1247209,41.7831291 L42.1247209,41.7831291 Z" id="Path" fill="#F7FFF7"></path>
                <path d="M41.4214707,59.9999113 L36.6089782,59.9999113 C34.0388141,60.0054415 31.5263615,59.2650822 29.3983632,57.8750256 L28.904441,57.561634 C26.9946405,56.3118971 24.73938,55.6447511 22.4314599,55.6468115 L19.6498977,55.6468115 C19.2909691,55.6468115 19,55.3661912 19,55.0200284 L19,39.9772333 C19,39.6310705 19.2909691,39.3504501 19.6498977,39.3504501 L23.5492839,39.3504501 C23.8783382,39.3509996 24.1953621,39.2311641 24.4363943,39.0151212 L30.9353713,33.1672346 C31.1245654,32.9980092 31.3996467,32.9527613 31.6363065,33.0519381 C31.8729663,33.151115 32.0263718,33.3759287 32.0271994,33.6247862 L32.0271994,39.3504501 L43.4004092,39.3504501 C44.8361236,39.3504501 46,40.4729316 46,41.8575827 L46,55.6248741 C45.9965697,56.791236 45.5117357,57.9082779 44.6526208,58.7291924 C43.793506,59.5501069 42.6308256,60.0073231 41.4214707,59.9999113 L41.4214707,59.9999113 Z M20.2997954,54.3807096 L22.4509568,54.3807096 C25.0181402,54.3778998 27.5269435,55.1192765 29.6518233,56.5086383 L30.1457456,56.8220299 C32.0555461,58.0717668 34.3108066,58.7389128 36.6187267,58.7368571 L41.4214707,58.7368571 C43.2161136,58.7368571 44.6709592,57.3337505 44.6709592,55.6029367 L44.6709592,41.845047 C44.6709592,41.1527215 44.089021,40.5914807 43.3711638,40.5914807 L31.3480563,40.5914807 C30.9891277,40.5914807 30.6981586,40.3108604 30.6981586,39.9646976 L30.6981586,35.0507179 L25.3007582,39.9176889 C24.8200138,40.3501781 24.1872154,40.5909355 23.529787,40.5914807 L20.2997954,40.5914807 L20.2997954,54.3807096 Z" id="Shape" fill="#292F36"></path>
                <rect id="Rectangle" fill="#FFF47D" x="32" y="29" width="12" height="12"></rect>
                <rect id="Rectangle" fill="#FFF47D" x="32" y="32" width="10" height="10"></rect>
                <path d="M43.3658537,42 L31.6341463,42 C31.283917,42 31,41.7089851 31,41.35 L31,29.65 C31,29.2910149 31.283917,29 31.6341463,29 L43.3658537,29 C43.716083,29 44,29.2910149 44,29.65 L44,41.35 C44,41.7089851 43.716083,42 43.3658537,42 Z M32.2682927,40.7 L42.7317073,40.7 L42.7317073,30.3 L32.2682927,30.3 L32.2682927,40.7 Z" id="Shape" fill="#292F36"></path>
                <path d="M70.3999998,36.8907592 L47,28.8738869 L47,9.1260932 L70.3999998,1.10922095 C70.9970038,0.902527891 71.6593255,0.992572747 72.1762503,1.35070817 C72.6931751,1.70884358 73.0003318,2.29047189 73,2.91055072 L73,35.1053422 C72.995084,35.722608 72.6857614,36.2994726 72.1696496,36.6538859 C71.6535379,37.0082993 70.9943067,37.0965395 70.3999998,36.8907592 L70.3999998,36.8907592 Z" id="Path" fill="#F97171"></path>
                <path d="M67.4398219,33.8884047 L47,26.6104665 L47,9.0836052 L67.4398219,1.51636982 C68.6879087,1.07429765 70,0.482701065 70,1.84142288 L70,32.071358 C69.9931098,32.7006551 69.6876794,33.2879033 69.1797886,33.6483709 C68.6718979,34.0088384 68.0239689,34.0982222 67.4398219,33.8884047 Z" id="Path" fill="#FF6B6B"></path>
                <path d="M71.4346941,38 C71.1422942,37.9994881 70.8520896,37.9490465 70.5763776,37.8508128 L70.5763776,37.8508128 L47.4307662,29.6811904 C47.1725506,29.5901215 46.999722,29.3441922 47.0000003,29.0682255 L47.0000003,8.92794963 C47.0000003,8.65113485 47.1744963,8.40494947 47.4339809,8.31498471 L70.5795923,0.145362348 C71.3660848,-0.132022659 72.2370399,-0.00782593258 72.9165216,0.478604508 C73.5960033,0.965034948 74.0000003,1.75341828 74.0000003,2.59397882 L74.0000003,35.4021963 C74.0000003,36.8351325 72.8485945,37.9967568 71.4282647,37.9967568 L71.4346941,38 Z M71.0007138,36.6281261 C71.394228,36.7669134 71.8300127,36.7046312 72.1698342,36.461036 C72.5096558,36.2174408 72.7113423,35.8227628 72.710918,35.4021963 L72.710918,2.59397882 C72.7113423,2.17341236 72.5096558,1.77873434 72.1698342,1.53513912 C71.8300127,1.29154391 71.394228,1.22926176 71.0007138,1.36804898 L48.2826533,9.38848412 L48.2826533,28.6109342 L71.0007138,36.6281261 Z" id="Shape" fill="#292F36"></path>
                <rect id="Rectangle" fill="#F7FFF7" x="29" y="10" width="18" height="20"></rect>
                <rect id="Rectangle" fill="#FFFFFF" x="29" y="9" width="18" height="18"></rect>
                <path d="M46.3440359,30 L28.6559641,30 C28.2936851,30 28,29.7155213 28,29.3645991 L28,9.63540091 C28,9.28447868 28.2936851,9 28.6559641,9 L46.3440359,9 C46.7063149,9 47,9.28447868 47,9.63540091 L47,29.3645991 C47,29.7155213 46.7063149,30 46.3440359,30 Z M29.3119282,28.7291982 L45.6880718,28.7291982 L45.6880718,10.2708018 L29.3119282,10.2708018 L29.3119282,28.7291982 Z" id="Shape" fill="#292F36"></path>
                <path d="M27.6893617,10 L29,10 L29,30 L27.6893617,30 C22.338075,30 18,25.5228475 18,20 L18,20 C18,14.4771525 22.338075,10 27.6893617,10 L27.6893617,10 Z" id="Path" fill="#F97171"></path>
                <path d="M26.4183673,10 L29,10 L29,27 L26.4183673,27 C21.7690314,27 18,23.1894808 18,18.4889672 L18,18.4889672 C18.0120318,13.797073 21.7775415,10 26.4183673,10 Z" id="Path" fill="#FF6B6B"></path>
                <path d="M29.3375796,30 L27.9464968,30 C21.9009136,30 17,25.2989899 17,19.5 C17,13.7010101 21.9009136,9 27.9464968,9 L29.3375796,9 C29.7034243,9 30,9.28447868 30,9.63540091 L30,29.3645991 C30,29.7155213 29.7034243,30 29.3375796,30 Z M27.9464968,10.2708018 C22.6326029,10.2708018 18.3248408,14.4028546 18.3248408,19.5 C18.3248408,24.5971454 22.6326029,28.7291982 27.9464968,28.7291982 L28.6751592,28.7291982 L28.6751592,10.2708018 L27.9464968,10.2708018 Z" id="Shape" fill="#292F36"></path>
            </g>
        </g>
    </g>
</svg>